<?xml version="1.0" standalone="no"?>
<!DOCTYPE svg PUBLIC "-//W3C//DTD SVG 20010904//EN"
 "http://www.w3.org/TR/2001/REC-SVG-20010904/DTD/svg10.dtd">
<svg version="1.0" xmlns="http://www.w3.org/2000/svg"
 width="2362.000000pt" height="3543.000000pt" viewBox="0 0 2362.000000 3543.000000"
 preserveAspectRatio="xMidYMid meet">

<g transform="translate(0.000000,3543.000000) scale(0.100000,-0.100000)"
fill="#000000" stroke="none">
<path d="M0 17715 l0 -17715 11810 0 11810 0 0 17715 0 17715 -11810 0 -11810
0 0 -17715z m9750 12110 c0 -8 -7 -15 -15 -15 -8 0 -15 7 -15 15 0 8 7 15 15
15 8 0 15 -7 15 -15z m197 -84 c18 -24 24 -29 75 -62 45 -29 51 -30 125 -25
106 7 112 7 159 0 26 -4 44 -2 48 5 4 6 26 11 50 11 23 0 65 7 93 15 58 17 86
11 135 -30 16 -14 40 -25 52 -25 12 0 33 -11 46 -25 16 -17 34 -25 56 -25 18
0 45 -5 59 -12 20 -9 31 -9 44 -1 14 9 25 8 46 -3 15 -8 49 -14 75 -14 43 0
51 -4 80 -37 71 -85 68 -83 131 -83 55 0 59 -2 59 -23 0 -29 28 -44 99 -51 40
-4 57 -1 68 10 22 21 45 14 68 -23 11 -17 40 -42 65 -56 29 -15 51 -37 62 -60
10 -20 35 -48 55 -62 39 -26 59 -32 48 -15 -3 6 1 10 9 10 8 0 22 -12 31 -27
14 -23 24 -28 63 -31 26 -1 52 -9 57 -16 6 -7 22 -21 38 -30 15 -10 27 -27 27
-37 0 -29 15 -30 54 -4 36 24 38 25 61 8 14 -10 25 -22 25 -27 0 -5 8 -2 18 7
9 8 26 17 37 19 15 2 21 -3 23 -24 4 -34 40 -62 59 -46 9 7 17 7 26 0 7 -6 32
-14 54 -18 40 -6 83 -34 83 -54 0 -6 5 -10 11 -10 6 0 17 -7 25 -15 9 -8 11
-15 6 -15 -13 0 -23 -27 -16 -45 7 -16 74 -61 87 -57 9 3 9 1 -4 -37 -11 -30
-9 -33 40 -78 38 -35 51 -53 51 -75 0 -15 -4 -28 -10 -28 -5 0 -10 -3 -10 -8
0 -4 18 -7 39 -7 49 0 59 -10 42 -36 -16 -26 -6 -37 19 -21 24 15 46 7 53 -19
3 -12 14 -19 29 -19 17 0 29 -8 36 -25 6 -14 20 -25 30 -25 19 0 42 -18 42
-32 0 -5 -11 -13 -24 -18 -18 -7 -22 -14 -19 -34 4 -20 14 -28 44 -36 23 -6
40 -18 44 -30 4 -11 11 -20 16 -20 17 0 9 -37 -12 -56 -18 -16 -20 -26 -15
-86 5 -66 19 -109 34 -106 16 3 59 -22 84 -49 17 -17 30 -44 32 -67 3 -21 12
-49 21 -62 10 -15 15 -47 15 -90 0 -64 1 -66 30 -77 36 -14 38 -29 8 -51 l-23
-16 38 -34 c26 -23 33 -35 24 -39 -20 -8 -20 -74 0 -85 12 -7 16 -25 16 -68 1
-80 -18 -132 -49 -140 -13 -3 -24 -10 -24 -16 0 -5 -5 -6 -10 -3 -18 11 -22
-23 -6 -47 21 -30 20 -35 -11 -64 -23 -21 -25 -27 -15 -49 14 -31 40 -32 51
-2 5 12 29 42 54 66 39 38 44 47 36 67 -6 18 -5 24 5 24 7 0 21 11 31 24 10
13 24 22 32 19 18 -7 16 -21 -8 -51 l-20 -26 25 -19 c14 -10 26 -28 26 -40 0
-12 9 -42 21 -66 13 -29 19 -61 17 -90 -3 -45 -2 -46 29 -49 48 -5 60 -25 40
-68 -15 -31 -15 -38 -3 -62 19 -36 15 -105 -7 -126 -20 -21 -22 -54 -3 -78 12
-17 14 -17 31 2 22 25 40 25 63 2 15 -15 17 -33 15 -109 -1 -51 -6 -100 -11
-110 -16 -29 -8 -196 9 -221 9 -12 19 -19 22 -16 4 4 4 -3 2 -15 -2 -12 1 -32
6 -45 14 -30 -6 -105 -29 -112 -41 -13 -60 -27 -55 -40 3 -8 13 -14 23 -14 10
0 20 -8 24 -17 3 -10 9 -25 12 -33 5 -12 4 -12 -6 -3 -10 9 -17 7 -31 -12 -20
-25 -25 -80 -9 -90 6 -3 10 -16 10 -28 0 -12 9 -28 19 -34 17 -11 23 -9 40 13
18 23 20 24 29 7 11 -19 -6 -53 -26 -53 -15 0 -23 -29 -12 -49 5 -10 6 -21 3
-25 -3 -3 3 -6 15 -6 12 0 22 -6 22 -14 0 -8 3 -21 6 -30 4 -10 1 -16 -9 -16
-14 0 -14 -4 -1 -36 12 -28 13 -43 5 -66 -14 -39 -3 -138 15 -145 16 -6 19
-59 5 -67 -15 -9 0 -57 28 -89 13 -16 13 -20 1 -27 -8 -5 -18 -6 -22 -4 -4 3
-13 -6 -19 -20 -9 -20 -8 -40 7 -95 10 -39 21 -71 24 -71 4 0 7 -6 7 -12 0 -7
2 -17 3 -23 6 -24 -1 -44 -19 -50 -22 -7 -25 -49 -5 -66 20 -16 17 -32 -7 -48
-20 -12 -21 -19 -16 -113 4 -85 8 -103 27 -123 18 -20 22 -31 17 -62 -4 -20
-13 -41 -22 -45 -10 -6 -15 -24 -15 -56 0 -30 -7 -58 -20 -77 -11 -16 -20 -40
-20 -52 0 -13 -4 -23 -9 -23 -4 0 -20 -11 -35 -25 -19 -18 -26 -34 -26 -63 0
-21 5 -43 10 -48 8 -8 6 -15 -5 -24 -21 -17 -19 -57 4 -70 16 -8 20 -21 20
-66 0 -60 16 -114 38 -127 7 -5 11 -13 7 -18 -3 -5 -2 -9 3 -8 19 3 54 -14 49
-25 -19 -46 -33 -66 -44 -66 -35 0 -70 -85 -48 -116 7 -9 11 -27 8 -39 -2 -13
1 -25 6 -29 17 -10 62 16 62 36 0 10 4 18 10 18 13 0 4 -60 -19 -119 -19 -50
-19 -51 0 -88 28 -55 25 -91 -8 -104 -64 -25 -81 -46 -44 -56 12 -3 21 -10 21
-15 0 -5 13 -7 30 -3 35 8 42 -10 8 -21 -36 -11 -63 -53 -36 -55 7 -1 20 -2
28 -3 8 -1 21 3 28 8 8 6 12 4 12 -6 0 -8 9 -23 19 -32 19 -17 20 -17 35 13 9
16 16 37 16 45 0 8 10 35 23 59 16 30 22 54 19 79 -2 20 4 62 14 95 26 84 37
245 37 553 0 25 0 106 1 180 1 183 -13 368 -32 408 -12 26 -12 38 -3 58 16 36
14 81 -6 115 -16 26 -16 29 0 47 19 20 23 67 7 77 -15 9 -12 149 6 250 19 108
91 267 133 292 14 9 52 34 85 56 57 39 59 39 99 26 38 -12 43 -12 88 14 27 15
56 27 65 27 9 0 25 11 35 24 12 15 34 27 59 31 24 4 60 22 89 45 27 21 64 43
82 49 19 5 61 20 94 32 55 19 66 20 130 9 130 -22 221 -81 262 -170 42 -93 53
-121 53 -143 0 -12 7 -33 16 -45 24 -35 36 -214 32 -502 -3 -243 -4 -257 -25
-293 -13 -21 -23 -49 -23 -63 0 -14 -6 -35 -12 -47 -7 -12 -18 -56 -25 -97
-27 -170 -35 -206 -54 -236 -10 -17 -19 -40 -19 -51 0 -10 -7 -28 -15 -39 -9
-12 -14 -43 -15 -82 0 -43 -6 -75 -20 -102 -11 -22 -20 -49 -20 -60 0 -11 -8
-37 -19 -58 -18 -36 -30 -90 -36 -162 -5 -64 -25 -174 -40 -224 -8 -27 -15
-64 -15 -83 0 -18 -9 -50 -20 -70 -11 -21 -20 -49 -20 -63 0 -14 -6 -34 -14
-45 -7 -11 -17 -31 -21 -45 -7 -24 -45 -108 -64 -140 -5 -8 -14 -26 -20 -40
-6 -14 -15 -32 -20 -40 -20 -33 -51 -120 -51 -145 0 -15 -6 -39 -14 -53 -8
-15 -19 -38 -25 -52 -6 -14 -20 -38 -31 -55 -11 -16 -26 -44 -34 -60 -31 -66
-87 -112 -186 -153 -84 -35 -107 -40 -200 -45 -63 -3 -120 -12 -143 -21 -34
-15 -42 -15 -99 0 -71 18 -100 31 -111 50 -4 8 -19 14 -33 14 -27 0 -38 -19
-50 -85 -4 -22 -9 -47 -11 -55 -27 -110 -34 -270 -12 -296 6 -7 29 -14 52 -16
38 -3 42 -6 48 -37 8 -37 23 -51 55 -51 12 0 26 -6 32 -12 10 -14 2 -177 -18
-343 -6 -49 -13 -117 -15 -150 -2 -33 -6 -90 -8 -126 -3 -37 -9 -75 -15 -85
-5 -11 -13 -93 -16 -184 -4 -91 -9 -194 -11 -230 -3 -36 -6 -132 -8 -215 -2
-82 -7 -159 -11 -170 -30 -77 -36 -99 -36 -128 0 -35 15 -66 26 -55 3 4 9 27
11 53 5 43 22 63 24 28 3 -63 -5 -120 -18 -135 -18 -20 -14 -121 5 -140 12
-12 15 -8 26 45 9 41 26 33 26 -13 0 -22 -5 -40 -10 -40 -15 0 -30 -44 -23
-68 9 -35 32 -35 41 0 11 42 32 49 32 10 0 -16 -9 -37 -20 -47 -11 -10 -20
-28 -20 -41 0 -13 -7 -27 -15 -31 -26 -15 -2 -35 29 -23 31 11 36 4 33 -50 -3
-47 28 -55 38 -10 8 35 28 35 33 1 3 -16 -2 -24 -17 -28 -29 -7 -27 -42 6 -92
28 -44 53 -54 53 -21 0 11 7 20 15 20 8 0 15 -9 15 -19 0 -10 -7 -21 -15 -25
-18 -6 -20 -42 -4 -52 7 -4 19 3 29 16 l17 22 22 -37 c17 -29 19 -40 10 -51
-17 -20 -3 -47 21 -41 18 5 25 -3 21 -25 0 -5 9 -8 22 -8 16 0 33 -14 56 -45
17 -24 45 -53 61 -65 16 -11 30 -30 32 -43 2 -13 16 -28 35 -37 18 -9 54 -38
80 -65 40 -41 58 -52 103 -63 31 -6 69 -12 86 -12 35 0 131 31 166 54 24 15
78 31 162 46 27 5 66 21 87 36 36 25 43 26 111 20 127 -13 268 -71 358 -148
19 -17 87 -81 150 -142 63 -62 135 -127 160 -145 50 -36 129 -109 157 -144 29
-38 58 -48 110 -41 65 8 129 -25 213 -111 56 -57 83 -76 188 -126 68 -32 126
-59 128 -59 3 0 58 -26 122 -58 64 -33 129 -62 143 -65 54 -13 42 -33 -74
-124 -202 -158 -293 -256 -431 -464 -42 -63 -99 -145 -127 -184 -49 -68 -122
-192 -201 -345 -172 -327 -248 -476 -276 -540 -37 -82 -298 -607 -366 -735
-175 -330 -234 -443 -241 -463 -4 -13 -52 -117 -106 -230 -55 -114 -104 -216
-109 -227 -59 -135 -94 -209 -213 -445 -76 -151 -150 -302 -164 -335 -49 -116
-310 -641 -356 -717 -26 -42 -47 -79 -47 -81 0 -3 -19 -38 -42 -79 -23 -40
-46 -82 -52 -93 -6 -11 -26 -43 -43 -70 -18 -28 -96 -180 -174 -340 -77 -159
-155 -321 -174 -360 -31 -64 -86 -203 -170 -430 -18 -49 -52 -135 -75 -190
-23 -55 -59 -152 -80 -215 -21 -63 -52 -151 -70 -195 -74 -190 -308 -877 -375
-1105 -21 -69 -48 -159 -60 -200 -38 -120 -182 -701 -275 -1105 -28 -121 -57
-245 -65 -275 -25 -95 -63 -298 -130 -695 -14 -82 -39 -215 -55 -295 -15 -80
-36 -188 -45 -240 -9 -52 -25 -138 -35 -190 -25 -130 -37 -209 -50 -315 -6
-49 -17 -130 -25 -180 -36 -221 -54 -338 -70 -440 -9 -60 -20 -128 -25 -150
-6 -22 -21 -112 -35 -200 -14 -88 -32 -198 -40 -245 -8 -47 -29 -167 -46 -268
-16 -101 -32 -189 -34 -195 -3 -7 -9 -48 -14 -92 -6 -44 -19 -150 -30 -235
-65 -493 -80 -771 -65 -1170 7 -162 14 -446 18 -632 5 -299 4 -337 -10 -342
-9 -3 -384 -6 -834 -6 -642 0 -820 3 -827 12 -6 9 -4 106 8 278 18 277 34 532
49 810 9 167 22 351 40 560 5 63 12 256 15 430 9 485 14 628 24 720 14 117 59
461 71 540 5 36 17 110 25 165 9 55 20 134 25 175 10 82 33 211 55 305 8 33
32 150 55 260 62 298 118 555 206 945 8 36 19 88 24 115 17 97 123 498 200
755 11 36 29 108 40 160 11 52 27 113 34 135 8 22 44 144 81 270 36 127 77
264 90 305 13 41 45 145 70 230 39 130 170 529 271 820 14 41 41 127 59 190
73 247 234 698 349 975 19 44 37 91 41 105 11 37 121 312 154 383 16 34 32 73
36 87 11 38 206 454 300 640 135 268 289 575 359 720 36 74 79 158 94 185 16
28 82 147 147 265 65 118 135 242 156 275 21 33 61 110 89 170 63 134 90 188
283 570 142 280 186 370 324 665 30 63 63 133 73 155 11 22 50 105 88 185 102
214 132 278 162 345 15 34 62 133 105 220 104 215 139 290 166 355 47 116 150
340 213 463 76 148 71 161 -35 74 -56 -47 -69 -64 -107 -148 -24 -52 -52 -112
-62 -134 -10 -22 -60 -125 -110 -230 -50 -104 -100 -208 -110 -230 -10 -22
-37 -80 -60 -130 -23 -49 -53 -117 -67 -150 -14 -33 -29 -64 -33 -70 -8 -11
-126 -271 -170 -376 -16 -36 -80 -173 -144 -303 -64 -130 -116 -239 -116 -242
0 -3 -77 -159 -171 -347 -94 -188 -180 -364 -191 -392 -24 -61 -129 -275 -199
-405 -96 -179 -253 -465 -299 -545 -25 -44 -56 -105 -69 -135 -13 -30 -49
-107 -81 -170 -32 -63 -117 -234 -190 -380 -73 -146 -156 -310 -185 -365 -29
-55 -72 -145 -95 -200 -23 -55 -71 -165 -107 -245 -147 -326 -240 -545 -267
-630 -8 -25 -33 -92 -55 -150 -105 -275 -166 -444 -196 -550 -19 -63 -53 -169
-76 -235 -109 -317 -203 -595 -215 -640 -7 -27 -34 -111 -59 -185 -48 -138
-114 -348 -159 -503 -14 -48 -38 -126 -52 -174 -14 -49 -41 -144 -59 -213 -18
-69 -49 -183 -70 -255 -20 -71 -42 -150 -49 -175 -7 -25 -30 -101 -51 -170
-21 -69 -41 -141 -46 -160 -4 -19 -22 -87 -38 -150 -53 -202 -69 -263 -91
-365 -11 -55 -28 -125 -36 -155 -54 -209 -171 -752 -199 -925 -8 -49 -23 -137
-34 -195 -88 -470 -130 -725 -156 -950 -9 -74 -20 -164 -25 -200 -9 -61 -14
-164 -40 -895 -6 -165 -15 -338 -20 -385 -5 -47 -12 -132 -15 -190 -3 -58 -7
-143 -10 -190 -13 -266 -16 -320 -21 -365 -5 -49 -11 -141 -35 -575 -6 -118
-16 -221 -22 -228 -7 -9 -184 -12 -846 -10 l-836 3 3 155 c1 85 7 209 12 275
6 66 17 206 25 310 8 105 17 199 20 211 3 12 11 106 20 209 8 104 19 205 24
224 5 20 12 65 16 101 4 36 13 106 20 155 8 50 21 151 30 225 27 237 36 304
46 351 6 26 14 80 19 120 9 82 32 245 54 384 8 50 18 108 21 130 3 22 12 67
20 100 7 33 23 110 35 170 12 61 28 137 36 170 7 33 25 123 39 200 15 77 35
181 45 230 10 50 35 173 54 275 54 280 65 334 96 475 16 72 34 159 40 195 7
36 18 85 25 110 7 25 25 99 40 165 15 66 49 210 75 320 26 110 60 252 75 315
15 63 35 142 45 175 10 33 30 101 45 150 15 50 42 142 62 205 19 63 43 144 53
180 9 36 52 164 94 285 42 121 92 265 111 320 18 55 50 145 70 200 20 55 65
183 100 285 35 102 77 221 93 265 16 44 54 150 84 235 31 85 77 211 103 280
26 69 85 240 131 380 87 265 90 273 131 380 14 36 31 88 38 115 7 28 30 97 50
155 65 180 145 411 180 517 19 56 47 134 63 175 16 40 39 100 52 133 12 33 40
101 61 150 20 50 58 146 84 215 26 69 57 150 70 180 13 30 47 116 76 190 48
126 98 244 154 365 89 194 137 303 207 465 43 102 99 226 122 275 24 50 55
122 69 160 14 39 40 104 57 145 18 41 53 125 78 185 88 215 207 428 381 684
14 20 43 72 66 116 23 44 52 98 66 120 34 54 69 128 124 264 26 63 58 132 71
152 24 38 31 69 17 69 -19 0 -114 -63 -128 -84 -22 -33 -108 -229 -130 -295
-34 -104 -126 -276 -250 -466 -151 -234 -278 -475 -339 -644 -49 -137 -109
-281 -181 -441 -29 -63 -96 -216 -150 -340 -53 -124 -128 -294 -167 -379 -39
-85 -94 -217 -123 -295 -29 -78 -78 -204 -109 -281 -57 -142 -69 -170 -136
-330 -34 -84 -112 -289 -231 -615 -27 -74 -80 -227 -118 -340 -37 -113 -85
-250 -105 -305 -21 -55 -44 -121 -51 -148 -13 -43 -71 -205 -145 -407 -112
-302 -223 -618 -277 -785 -19 -60 -53 -155 -75 -210 -22 -55 -75 -203 -118
-330 -43 -126 -117 -342 -164 -480 -96 -282 -196 -613 -237 -785 -15 -63 -65
-268 -111 -455 -47 -187 -90 -365 -96 -395 -6 -30 -20 -91 -30 -135 -19 -79
-54 -235 -91 -410 -11 -49 -22 -108 -26 -130 -3 -22 -12 -71 -20 -110 -17 -82
-58 -300 -76 -400 -6 -38 -18 -95 -25 -125 -7 -30 -18 -86 -24 -125 -6 -38
-26 -144 -45 -235 -33 -158 -44 -219 -85 -450 -18 -101 -50 -289 -70 -415 -14
-86 -40 -285 -50 -390 -5 -49 -16 -137 -25 -195 -9 -58 -22 -152 -30 -210 -8
-58 -18 -130 -24 -160 -6 -30 -20 -154 -31 -275 -11 -121 -29 -319 -40 -440
-12 -121 -26 -332 -32 -470 -6 -137 -12 -252 -14 -254 -5 -6 -392 -4 -402 3
-7 4 -10 101 -10 269 0 307 -10 820 -17 892 -7 57 -18 84 -30 65 -4 -6 -8
-283 -9 -616 -1 -513 -3 -606 -15 -614 -8 -5 -264 -9 -568 -10 -455 0 -554 2
-559 13 -2 7 0 53 5 103 6 49 17 159 26 244 8 85 24 216 35 290 10 74 26 196
34 270 9 74 21 167 26 205 5 39 15 122 20 185 6 63 15 144 21 180 5 36 16 130
24 210 8 80 19 186 25 235 6 50 17 153 25 230 9 77 24 221 35 320 30 277 49
505 65 790 19 347 42 706 60 950 8 110 17 243 20 295 3 52 10 154 15 225 5 72
15 207 21 300 6 94 15 191 19 217 5 25 12 327 15 670 5 483 9 641 20 702 8 43
15 102 15 131 0 29 7 92 16 141 8 49 19 116 23 149 5 33 16 92 26 130 9 39 26
110 37 159 38 162 45 174 130 218 71 38 81 40 190 45 97 5 119 3 139 -11 13
-9 30 -16 39 -16 25 0 122 -42 190 -84 101 -61 113 -66 148 -66 18 0 47 -8 65
-17 24 -12 60 -17 145 -17 75 -1 112 -4 112 -12 0 -6 -13 -38 -30 -70 -16 -33
-46 -123 -66 -199 -19 -77 -45 -174 -56 -215 -11 -41 -22 -86 -25 -100 -3 -14
-23 -90 -45 -170 -101 -367 -108 -392 -154 -575 -14 -58 -28 -122 -58 -270 -8
-38 -32 -155 -54 -260 -22 -104 -48 -235 -57 -290 -9 -55 -23 -131 -30 -170
-8 -38 -19 -123 -25 -187 -5 -64 -12 -123 -15 -130 -3 -7 -14 -104 -25 -215
-19 -196 -28 -360 -50 -943 -13 -344 -7 -1445 8 -1595 7 -60 14 -171 16 -245
11 -323 19 -451 32 -468 11 -15 13 -14 19 11 4 15 3 62 -3 105 -6 42 -11 162
-11 266 -1 103 -4 193 -8 198 -3 6 -8 133 -10 282 -1 149 -7 393 -11 541 -5
149 -7 315 -5 370 4 97 5 166 3 203 0 9 4 57 9 106 6 48 17 244 26 434 23 528
47 809 96 1162 6 41 13 91 15 110 11 86 47 282 64 350 10 41 28 125 40 185 23
121 53 252 75 330 15 49 36 136 56 225 16 68 40 159 56 214 9 26 21 74 28 105
20 84 41 166 70 266 14 50 32 119 39 155 8 36 24 101 36 145 12 44 27 105 35
135 30 127 89 239 138 262 84 40 143 87 161 127 10 22 16 47 12 56 -5 14 -9
14 -33 1 -16 -8 -50 -33 -77 -56 -27 -22 -54 -39 -60 -37 -6 2 -12 23 -14 48
-4 48 21 270 43 384 7 39 16 98 20 133 3 34 13 81 21 103 7 23 14 52 14 65 0
33 111 382 130 409 4 6 13 28 20 50 13 40 73 186 89 215 5 9 40 95 79 192 39
98 76 185 81 195 6 10 26 56 44 103 59 148 109 272 144 360 75 185 93 228 126
315 31 79 52 127 126 290 11 22 50 112 89 200 38 88 93 212 121 275 27 63 69
171 91 240 23 69 45 134 50 145 38 80 130 321 183 475 72 215 108 327 127 395
45 162 101 339 134 428 46 124 116 336 116 353 0 24 47 118 79 158 38 47 40
66 6 66 -64 0 -156 -142 -210 -322 -13 -46 -51 -162 -85 -258 -33 -96 -92
-283 -131 -415 -39 -132 -76 -256 -84 -275 -8 -19 -25 -76 -39 -125 -15 -50
-45 -138 -67 -195 -23 -58 -47 -127 -55 -155 -8 -27 -20 -66 -28 -85 -14 -32
-57 -144 -108 -280 -26 -69 -27 -71 -136 -320 -49 -113 -104 -239 -122 -280
-18 -41 -38 -86 -46 -100 -23 -43 -101 -232 -122 -295 -20 -58 -46 -125 -130
-325 -129 -308 -307 -742 -337 -820 -7 -19 -22 -59 -34 -87 -90 -226 -116
-302 -145 -438 -15 -66 -31 -138 -36 -160 -6 -22 -14 -69 -19 -105 -6 -36 -23
-159 -40 -275 -17 -115 -31 -226 -31 -246 0 -19 -6 -42 -12 -51 -15 -18 -101
-30 -132 -18 -12 4 -54 13 -95 19 -40 6 -83 18 -94 26 -12 8 -31 15 -42 15
-11 0 -50 17 -86 38 -82 49 -239 101 -304 103 -28 0 -66 1 -85 1 -60 2 -133
-13 -193 -40 -49 -21 -60 -23 -68 -11 -14 22 -11 56 10 107 34 84 53 136 66
182 36 130 69 230 123 375 115 310 140 381 157 445 10 36 26 92 36 125 10 33
26 89 34 125 8 36 27 103 42 150 33 109 128 410 149 475 17 50 73 267 99 380
23 99 84 284 185 560 10 28 23 66 30 85 7 19 19 51 27 70 16 37 146 384 207
555 20 55 41 114 47 130 7 17 20 59 30 95 10 36 31 103 47 150 48 142 101 312
112 360 5 25 19 79 30 120 12 41 30 111 40 155 41 173 52 209 81 278 58 137
70 160 105 202 39 48 43 65 14 65 -36 0 -116 -92 -156 -177 -45 -95 -95 -242
-118 -343 -65 -289 -231 -848 -313 -1050 -19 -47 -41 -103 -48 -125 -7 -22
-25 -71 -40 -110 -15 -38 -41 -110 -59 -160 -18 -49 -56 -151 -83 -225 -28
-74 -59 -160 -68 -190 -9 -30 -32 -95 -50 -145 -39 -105 -75 -222 -75 -244 0
-20 -46 -194 -94 -360 -39 -137 -35 -122 -110 -351 -30 -91 -59 -183 -65 -205
-26 -103 -64 -237 -86 -305 -73 -227 -115 -351 -134 -400 -37 -92 -101 -281
-123 -360 -31 -117 -35 -128 -77 -250 -22 -63 -40 -132 -41 -153 0 -51 -15
-77 -45 -77 -22 0 -27 7 -42 61 -10 35 -24 64 -35 70 -26 14 -96 -19 -162 -76
-29 -25 -60 -45 -69 -45 -9 0 -24 12 -34 28 -10 15 -22 31 -28 35 -30 23 -133
-25 -220 -104 -52 -46 -107 -79 -132 -79 -12 0 -32 15 -47 35 -15 19 -34 35
-42 35 -38 0 -171 -87 -229 -150 -38 -41 -104 -90 -122 -90 -34 0 -4 45 95
142 68 67 130 117 168 137 154 81 260 151 291 191 58 75 36 121 -34 71 -21
-15 -96 -59 -168 -99 -137 -75 -227 -137 -284 -196 -33 -34 -71 -48 -71 -26 0
6 9 36 19 68 11 31 29 91 40 132 22 81 45 154 66 210 7 19 24 73 38 120 14 47
36 110 47 140 12 30 30 80 40 110 19 54 98 279 140 394 12 33 50 98 86 145 66
89 78 125 45 136 -11 3 -21 12 -24 19 -6 15 16 93 58 201 15 39 49 131 75 205
27 74 60 164 73 200 14 36 30 79 35 95 6 17 27 75 46 131 20 56 36 106 36 112
0 11 11 37 61 148 11 23 19 44 19 48 0 4 24 60 54 124 93 201 159 358 226 542
21 58 49 134 63 170 46 119 107 295 107 306 0 6 15 53 34 105 43 120 63 181
82 245 7 28 27 85 42 125 26 66 56 155 100 289 8 25 22 68 33 95 10 28 38 113
63 190 113 354 151 449 196 490 23 21 27 55 5 55 -27 0 -92 -69 -119 -126 -27
-56 -170 -467 -187 -536 -5 -20 -15 -52 -23 -70 -7 -18 -22 -60 -31 -93 -10
-33 -55 -166 -101 -295 -45 -129 -97 -282 -114 -340 -33 -106 -67 -198 -166
-453 -30 -77 -54 -143 -54 -149 0 -5 -16 -49 -36 -96 -85 -203 -157 -370 -179
-417 -72 -155 -113 -256 -145 -360 -12 -38 -27 -81 -32 -95 -6 -14 -17 -43
-24 -65 -7 -22 -22 -62 -32 -90 -11 -27 -39 -97 -62 -155 -62 -159 -160 -447
-175 -520 -17 -79 -39 -150 -57 -184 -15 -29 -268 -303 -457 -495 -102 -103
-135 -131 -144 -122 -9 9 -8 19 7 44 10 18 36 66 58 107 22 41 44 80 49 85 4
6 17 36 29 67 11 31 40 85 63 119 23 35 47 75 53 89 6 14 29 46 51 72 66 76
92 168 50 176 -25 5 -42 -12 -79 -77 -17 -31 -47 -74 -65 -97 -18 -23 -33 -45
-33 -49 0 -4 -24 -44 -53 -89 -29 -44 -75 -126 -101 -181 -27 -55 -73 -149
-102 -208 -30 -60 -54 -115 -54 -123 0 -8 -9 -33 -20 -54 -28 -54 -87 -241
-100 -317 -12 -68 -29 -258 -36 -388 -2 -44 -9 -119 -15 -167 -9 -72 -8 -112
6 -220 9 -73 22 -153 30 -178 7 -25 16 -69 19 -98 6 -65 11 -72 42 -72 39 0
59 56 44 124 -7 28 -16 85 -21 126 -23 208 -30 293 -24 298 11 12 40 -15 84
-79 24 -35 61 -84 83 -107 33 -36 39 -49 35 -75 -11 -77 -60 -285 -82 -346
-26 -73 -48 -155 -65 -246 -6 -33 -16 -82 -21 -110 -5 -27 -18 -115 -29 -195
-11 -80 -26 -181 -35 -225 -33 -183 -65 -411 -90 -650 -8 -77 -19 -180 -25
-230 -26 -226 -50 -439 -60 -540 -6 -60 -26 -238 -45 -395 -19 -157 -42 -379
-51 -495 -17 -224 -24 -304 -42 -455 -16 -132 -49 -452 -62 -590 -24 -272 -30
-336 -35 -355 -2 -11 -11 -85 -20 -165 -23 -217 -45 -373 -81 -570 -14 -74
-33 -202 -44 -285 -21 -166 -38 -276 -75 -470 -27 -146 -74 -412 -81 -465 -15
-106 -28 -161 -40 -171 -17 -14 -1341 -6 -1354 8 -4 4 -2 42 6 83 7 41 18 131
24 200 5 69 15 154 20 190 6 36 17 126 25 200 31 297 46 427 55 460 5 19 11
76 15 125 3 50 12 135 20 190 8 55 17 132 20 170 3 39 12 115 20 170 8 55 22
150 30 210 8 61 30 218 50 350 20 132 40 272 45 310 5 39 14 95 20 125 6 30
17 107 25 170 8 63 21 149 29 190 8 41 21 122 31 180 9 58 21 119 26 137 6 17
16 69 24 115 21 133 53 302 63 344 6 21 13 62 17 89 4 28 12 77 20 110 21 97
53 254 116 575 16 85 34 173 39 195 5 22 18 85 30 140 12 55 28 125 36 155
114 451 196 780 224 900 12 52 30 120 40 150 10 30 28 91 39 135 29 107 57
207 80 280 11 33 36 114 56 180 21 66 62 193 91 282 30 89 54 168 54 175 1 7
9 31 20 53 11 22 19 48 20 57 0 10 6 32 14 50 8 18 35 101 61 183 78 252 146
466 172 540 76 214 106 295 157 425 31 80 72 181 91 225 19 44 44 105 54 135
11 30 49 134 86 230 36 96 78 209 92 250 14 41 34 91 44 110 11 19 19 39 19
43 0 5 6 23 14 40 42 92 146 335 146 340 0 3 23 53 50 111 28 58 50 109 50
113 0 5 24 58 54 118 30 61 63 130 74 155 11 25 36 79 56 122 20 42 49 110 66
151 16 41 43 101 59 134 38 77 193 387 296 593 45 91 84 170 86 175 2 6 24 46
49 89 84 146 92 161 112 211 11 28 25 57 33 65 7 8 28 44 48 80 19 36 64 115
101 174 36 60 66 110 66 112 0 2 25 45 55 96 30 51 55 96 55 101 0 5 8 21 19
35 10 15 40 68 65 117 26 50 52 99 59 110 6 11 24 41 39 66 15 25 33 61 39 80
16 45 82 128 121 152 21 12 41 17 60 13 34 -7 45 11 28 43 -29 55 -155 -18
-205 -119 -10 -19 -39 -71 -65 -115 -44 -75 -98 -171 -181 -324 -44 -82 -49
-92 -196 -336 -66 -110 -152 -263 -192 -339 -39 -76 -80 -150 -90 -165 -10
-14 -54 -98 -99 -186 -44 -88 -143 -284 -220 -435 -76 -151 -147 -297 -157
-325 -10 -27 -22 -54 -26 -60 -4 -5 -36 -75 -72 -155 -36 -80 -87 -192 -115
-250 -46 -97 -176 -388 -292 -655 -27 -60 -57 -137 -69 -170 -11 -33 -39 -107
-62 -165 -83 -211 -161 -416 -174 -455 -7 -22 -27 -71 -43 -110 -16 -38 -41
-104 -56 -146 -14 -41 -32 -89 -41 -105 -8 -16 -15 -34 -15 -40 0 -5 -12 -39
-26 -75 -40 -99 -173 -487 -188 -549 -8 -30 -33 -107 -56 -170 -23 -63 -68
-194 -100 -290 -32 -96 -81 -240 -108 -320 -28 -80 -69 -206 -92 -280 -66
-214 -68 -222 -85 -275 -9 -27 -22 -72 -29 -100 -25 -91 -84 -290 -94 -315 -5
-14 -15 -57 -21 -95 -16 -97 -44 -214 -75 -320 -31 -101 -92 -331 -111 -415
-7 -30 -19 -80 -27 -110 -9 -30 -23 -91 -33 -135 -9 -44 -26 -116 -36 -160
-10 -45 -19 -98 -19 -118 0 -21 -5 -47 -10 -57 -6 -11 -17 -54 -25 -97 -13
-74 -67 -345 -100 -498 -8 -38 -24 -124 -35 -190 -12 -66 -28 -151 -35 -190
-8 -38 -24 -122 -35 -185 -12 -63 -28 -141 -36 -173 -8 -32 -19 -104 -24 -160
-6 -56 -13 -109 -16 -117 -3 -8 -11 -57 -19 -110 -8 -52 -19 -122 -25 -155
-23 -135 -54 -346 -85 -585 -7 -58 -20 -148 -29 -200 -8 -52 -22 -151 -31
-220 -8 -69 -25 -197 -36 -285 -11 -88 -24 -198 -29 -245 -5 -47 -18 -157 -29
-245 -23 -186 -36 -299 -51 -445 -6 -58 -17 -168 -25 -246 -8 -78 -19 -170
-24 -205 -6 -35 -11 -89 -11 -119 0 -30 -4 -61 -8 -68 -6 -9 -35 -12 -108 -10
-99 3 -99 3 -98 28 1 14 5 225 8 470 4 245 11 546 16 670 5 124 12 358 14 520
5 270 8 496 21 1595 5 390 18 697 35 830 6 44 15 130 20 191 5 61 13 131 19
155 5 24 12 76 15 114 12 128 62 401 156 845 17 81 107 437 129 510 6 19 40
145 76 280 37 135 72 265 80 290 33 109 46 160 61 230 14 73 28 122 81 300 67
225 97 318 149 456 30 82 61 169 69 194 7 25 32 97 55 160 23 63 48 135 55
160 7 25 20 59 29 75 9 17 16 35 16 41 0 11 23 70 55 139 37 80 85 204 85 218
0 28 186 480 211 512 4 6 22 46 40 90 17 43 35 86 40 94 5 9 37 75 72 146 35
72 96 193 134 270 39 77 87 176 108 220 21 44 61 121 89 170 28 50 57 102 66
118 20 37 114 191 150 247 16 25 48 77 71 115 23 39 50 79 59 90 10 11 37 55
61 98 76 135 85 149 157 262 39 61 105 165 146 231 42 67 83 127 91 134 8 7
15 16 15 21 0 5 32 58 70 118 39 61 70 114 70 119 0 5 20 35 45 66 25 32 45
62 45 65 0 8 29 54 115 186 29 44 65 102 79 130 15 27 33 56 41 65 7 8 18 26
24 40 6 14 31 52 55 85 99 134 198 322 137 260 -21 -21 -91 -129 -117 -180 -8
-16 -33 -57 -55 -90 -22 -33 -46 -73 -53 -90 -8 -16 -27 -47 -43 -67 -48 -64
-65 -89 -90 -137 -14 -25 -38 -60 -54 -79 -16 -18 -29 -38 -29 -43 0 -6 -20
-44 -45 -83 -25 -40 -45 -76 -45 -81 0 -5 -7 -15 -15 -24 -17 -17 -114 -152
-156 -216 -15 -22 -84 -128 -154 -235 -71 -107 -140 -217 -154 -245 -23 -43
-86 -145 -140 -224 -20 -29 -23 -34 -90 -141 -53 -85 -148 -231 -183 -282 -10
-15 -18 -31 -18 -35 0 -5 -15 -31 -33 -58 -39 -58 -31 -43 -180 -335 -244
-478 -305 -601 -357 -716 -29 -65 -75 -165 -102 -221 -26 -57 -48 -108 -48
-113 0 -6 -9 -28 -20 -49 -11 -22 -28 -70 -39 -107 -11 -38 -41 -118 -66 -179
-26 -60 -58 -137 -72 -170 -27 -65 -127 -336 -148 -400 -7 -22 -32 -92 -55
-155 -23 -63 -57 -160 -75 -215 -18 -55 -38 -111 -43 -125 -10 -24 -21 -60
-71 -230 -13 -41 -29 -91 -36 -110 -8 -19 -21 -71 -30 -115 -16 -77 -45 -188
-85 -325 -11 -36 -29 -99 -40 -140 -12 -41 -30 -104 -40 -140 -11 -36 -31
-110 -46 -165 -14 -55 -35 -131 -45 -170 -22 -79 -27 -98 -98 -385 -90 -367
-86 -345 -141 -670 -71 -417 -87 -529 -100 -720 -5 -80 -14 -201 -19 -270 -16
-213 -21 -409 -26 -1205 -3 -423 -10 -862 -15 -975 -5 -113 -12 -432 -15 -710
-7 -612 -14 -981 -21 -992 -3 -4 -151 -8 -328 -8 -271 0 -326 2 -336 15 -6 8
-9 18 -6 23 3 5 8 146 11 313 7 374 25 931 31 940 5 9 15 129 18 232 2 45 7
102 10 127 6 33 4 50 -8 65 -27 36 -46 1 -56 -101 -5 -49 -13 -114 -19 -144
-24 -129 -47 -654 -50 -1119 -1 -183 -3 -336 -5 -340 -2 -3 -51 -6 -108 -6
l-103 0 -6 95 c-4 52 -12 120 -18 150 -24 116 -24 304 -1 490 32 248 37 337
40 665 3 364 4 388 24 735 25 442 34 550 61 765 13 110 32 259 41 330 9 72 24
185 35 253 10 67 19 135 19 150 0 41 30 136 40 126 4 -5 4 -65 0 -134 -12
-179 -1 -334 30 -430 8 -24 21 -97 36 -200 3 -25 10 -50 14 -55 5 -6 10 -24
13 -40 2 -17 7 -37 10 -45 6 -16 16 -85 21 -140 1 -19 8 -48 15 -65 10 -23 10
-49 2 -116 -6 -48 -8 -94 -5 -103 3 -9 0 -87 -7 -173 -7 -87 -14 -180 -15
-208 -2 -27 -6 -65 -10 -82 -3 -18 -3 -41 1 -50 5 -10 7 -24 6 -30 -1 -7 2
-13 6 -13 11 0 43 81 43 110 0 13 4 49 10 79 37 218 51 335 70 601 6 80 13
174 16 210 3 36 7 120 9 187 2 67 9 131 15 143 6 12 9 28 6 35 -3 8 3 33 12
56 12 32 13 44 4 47 -7 2 -12 17 -12 33 0 20 4 27 14 23 10 -4 18 5 24 30 10
36 10 48 -1 76 -3 8 -8 41 -11 74 -5 57 -4 59 31 91 35 32 35 34 29 87 -6 47
-4 57 14 73 21 19 28 55 10 55 -16 0 -12 21 8 43 14 16 17 40 18 131 1 61 6
123 12 137 6 15 9 29 6 32 -8 7 18 57 30 57 6 0 4 5 -4 10 -18 11 -18 156 0
189 6 12 13 81 16 153 4 81 12 144 20 162 8 17 14 61 14 106 0 42 7 121 15
176 9 54 18 119 20 144 9 77 46 312 69 430 27 137 55 272 67 320 7 25 15 68
19 97 5 28 11 56 14 62 4 5 11 36 17 68 5 32 19 99 30 148 11 50 26 122 34
160 8 39 24 113 36 165 11 53 20 102 18 110 -2 8 7 41 19 73 12 32 22 67 22
79 0 12 9 51 19 87 11 36 41 140 66 231 60 213 69 242 98 320 14 36 43 112 65
170 22 58 56 146 77 195 21 50 48 119 61 154 13 35 33 82 43 105 35 72 91 223
91 242 0 11 46 109 101 219 56 110 117 238 136 285 19 47 40 92 48 100 21 25
28 60 12 60 -9 0 -39 -47 -72 -113 -32 -61 -70 -131 -86 -155 -39 -58 -145
-279 -154 -320 -6 -31 -26 -75 -125 -287 -33 -70 -100 -228 -126 -295 -21 -55
-94 -240 -114 -290 -20 -48 -23 -58 -70 -195 -53 -155 -83 -258 -119 -405 -10
-41 -24 -88 -30 -103 -6 -16 -11 -44 -11 -63 0 -19 -6 -47 -14 -62 -7 -15 -16
-52 -19 -82 -4 -31 -13 -76 -21 -100 -8 -25 -24 -94 -36 -155 -13 -60 -29
-137 -38 -170 -8 -33 -18 -83 -22 -111 -4 -28 -15 -65 -24 -83 -10 -18 -16
-40 -15 -49 4 -22 -9 -86 -27 -140 -8 -23 -14 -57 -14 -75 0 -18 -9 -61 -20
-95 -11 -35 -20 -79 -20 -97 0 -39 -8 -65 -21 -65 -14 0 -10 128 5 165 8 19
18 67 22 107 3 40 13 88 20 107 8 18 14 55 14 82 0 26 5 51 10 54 6 4 8 10 5
15 -3 5 -1 11 3 14 5 3 12 47 16 98 4 51 13 115 20 142 7 27 11 60 8 74 -5 25
-5 24 -24 -11 -22 -43 -43 -40 -44 6 -1 59 -7 122 -15 132 -4 6 -11 31 -16 56
-9 41 -6 57 28 155 21 60 34 110 29 112 -5 2 -2 19 6 39 9 19 14 47 13 62 -2
14 7 45 19 68 12 23 22 51 22 61 0 11 7 25 15 32 8 7 17 28 20 49 3 20 10 63
16 95 10 58 5 75 -23 76 -17 0 -39 -52 -49 -111 -5 -35 -19 -76 -29 -91 -11
-15 -20 -34 -20 -43 0 -9 -9 -34 -21 -57 -12 -23 -19 -51 -16 -66 3 -15 -2
-31 -12 -41 -9 -9 -23 -31 -30 -49 -7 -18 -17 -32 -22 -32 -5 0 -9 -13 -9 -29
0 -16 -16 -59 -36 -96 -23 -43 -37 -81 -37 -106 0 -21 -4 -39 -9 -39 -4 0 -8
-8 -8 -19 0 -10 -8 -29 -18 -42 -10 -13 -23 -36 -30 -51 -6 -15 -17 -26 -24
-23 -16 6 -70 -105 -73 -147 -1 -15 -2 -40 -3 -54 -1 -14 -6 -23 -11 -20 -12
8 -38 -24 -46 -56 -4 -15 -13 -33 -21 -39 -11 -9 -12 -14 -3 -19 11 -7 2 -19
-46 -59 -9 -7 -15 -22 -12 -32 3 -12 -6 -26 -28 -43 -18 -14 -35 -22 -38 -19
-15 14 -27 -57 -32 -180 -5 -151 -14 -235 -25 -242 -9 -6 -19 178 -20 382 0
88 -3 172 -6 185 -2 12 -7 226 -10 473 -2 248 -7 458 -10 467 -3 10 1 28 7 40
7 13 16 46 20 73 4 28 10 70 14 95 4 25 14 74 22 110 9 36 15 80 14 98 -1 18
5 47 12 65 16 38 47 191 47 235 0 17 6 46 14 64 8 18 19 67 26 108 6 41 15 89
20 105 4 17 11 46 15 65 4 19 15 58 25 85 10 28 21 75 24 105 4 30 14 75 22
100 7 25 18 74 24 110 12 80 12 79 38 164 12 37 22 78 22 90 0 12 4 26 9 31 4
6 16 42 25 80 10 39 21 84 26 100 5 17 11 44 14 60 3 17 19 68 36 115 16 47
30 98 30 113 0 16 9 40 20 54 11 14 22 41 25 62 4 20 13 48 21 63 8 14 14 37
14 50 0 13 7 33 15 44 18 24 19 60 1 67 -18 7 -26 -1 -26 -29 0 -12 -5 -35
-12 -51 -6 -15 -12 -31 -13 -35 -2 -5 -3 -9 -5 -10 -1 -2 -3 -10 -5 -19 -7
-35 -17 -59 -25 -59 -5 0 -14 -24 -20 -54 -6 -30 -20 -62 -30 -71 -10 -9 -24
-43 -31 -74 -6 -31 -20 -68 -31 -83 -11 -16 -16 -32 -13 -38 3 -5 1 -10 -4
-10 -6 0 -11 -11 -11 -24 0 -14 -4 -27 -9 -31 -5 -3 -13 -29 -16 -58 -5 -38
-15 -63 -36 -86 -21 -25 -29 -44 -29 -72 0 -22 -4 -39 -10 -39 -5 0 -10 4 -10
9 0 14 -40 20 -67 10 -14 -5 -28 -7 -31 -4 -12 12 -2 65 17 84 25 25 26 35 5
55 -17 17 -14 32 19 106 23 51 26 70 26 158 0 36 5 62 11 62 5 0 10 -5 10 -11
0 -5 5 -7 11 -4 6 4 9 26 7 49 -3 44 13 62 23 24 l5 -23 8 22 c4 12 2 32 -4
43 -15 29 -3 63 20 57 16 -4 18 0 13 29 -6 39 12 70 32 54 9 -8 12 -1 11 27
-1 33 2 38 21 36 19 -2 21 1 15 39 -5 40 -5 41 21 34 20 -5 27 -3 27 8 0 8 -5
18 -10 21 -7 4 -7 13 0 26 13 24 27 24 34 2 3 -10 4 -1 1 19 -2 26 2 43 16 59
10 12 19 28 19 35 0 7 9 18 20 24 11 6 20 19 20 29 0 10 7 24 15 31 8 7 15 17
15 22 0 16 76 129 83 122 7 -8 0 -52 -18 -114 -16 -52 -26 -162 -16 -178 4 -6
19 5 37 27 38 45 78 169 94 295 6 49 15 97 21 107 5 10 9 27 9 38 0 23 43 106
71 137 11 11 19 25 19 32 0 9 36 73 91 162 5 8 16 29 24 47 8 17 18 33 23 35
11 4 52 85 52 102 0 7 7 20 16 27 9 7 20 22 26 34 19 41 75 133 88 145 13 13
60 87 60 96 0 6 25 47 55 93 30 46 55 88 55 94 0 6 7 19 17 29 17 18 23 29 57
89 22 40 86 139 101 156 5 6 21 29 35 49 43 64 151 167 260 248 58 43 139 109
180 145 103 92 261 213 375 288 22 15 93 63 158 107 65 45 133 89 150 99 18
10 59 36 92 57 33 22 92 55 130 75 70 36 92 50 284 178 69 46 108 66 119 62
15 -6 15 -8 -3 -18 -44 -26 -255 -237 -387 -387 -93 -107 -246 -302 -277 -355
-37 -63 -123 -195 -199 -305 -21 -30 -59 -93 -86 -140 -27 -47 -63 -105 -80
-130 -18 -25 -48 -71 -66 -103 -19 -32 -40 -66 -45 -75 -74 -123 -291 -552
-338 -667 -83 -206 -143 -402 -183 -595 -14 -69 -38 -179 -54 -245 -15 -66
-31 -140 -35 -165 -6 -40 -71 -298 -109 -435 -25 -92 -98 -289 -131 -355 -66
-133 -94 -243 -50 -199 27 27 177 324 189 374 6 27 44 130 66 180 16 37 98
329 115 410 9 44 25 116 35 160 20 86 52 234 76 355 17 81 46 188 71 259 9 24
19 58 24 75 22 90 96 272 178 436 134 270 171 337 363 650 102 168 116 189
189 297 37 54 79 118 93 143 50 84 176 251 281 372 33 38 92 107 130 153 39
45 109 125 156 176 47 52 93 111 103 132 9 20 24 37 33 37 8 0 37 18 63 40 26
22 51 40 55 40 4 0 28 17 54 38 54 43 108 82 115 82 10 0 110 72 196 141 25
20 63 46 84 58 34 19 123 89 476 370 25 20 72 56 105 81 33 25 63 50 67 56 4
6 40 38 80 70 40 32 78 63 83 68 46 50 279 236 294 236 22 0 10 -18 -61 -95
-40 -42 -78 -87 -84 -98 -6 -11 -47 -56 -91 -101 -118 -121 -339 -370 -398
-451 -17 -22 -57 -72 -90 -112 -34 -39 -85 -106 -115 -150 -29 -43 -98 -139
-153 -213 -173 -233 -202 -275 -248 -357 -13 -23 -96 -149 -184 -280 -155
-229 -385 -587 -385 -598 0 -3 -74 -155 -164 -337 -90 -183 -167 -344 -171
-358 -4 -14 -15 -36 -24 -50 -35 -54 -42 -66 -54 -90 -7 -14 -20 -37 -30 -52
-11 -15 -17 -33 -15 -40 3 -8 15 2 29 23 13 19 47 70 76 112 28 43 97 168 154
280 56 111 105 207 109 212 4 6 46 85 93 177 87 171 192 336 512 808 39 58 86
132 105 165 19 33 50 83 69 110 19 28 62 88 94 135 33 47 74 103 91 125 18 22
58 77 90 123 108 154 330 431 519 646 49 56 114 134 144 174 30 39 58 72 62
72 5 0 41 43 80 95 39 52 76 97 81 100 5 3 16 27 24 53 9 26 27 81 41 122 14
41 25 87 25 102 0 15 4 29 9 32 5 3 23 30 39 59 33 58 237 264 246 249 3 -5
-3 -21 -14 -35 -11 -14 -20 -29 -20 -34 0 -5 -11 -20 -25 -33 -14 -13 -25 -34
-25 -46 0 -16 -10 -29 -32 -40 -63 -32 -83 -77 -57 -125 8 -16 7 -25 -6 -39
-23 -25 -15 -41 26 -55 29 -10 34 -17 37 -48 2 -28 8 -37 21 -37 10 0 29 -15
42 -33 43 -58 122 -123 188 -151 59 -26 78 -29 245 -37 100 -4 204 -10 231
-14 56 -7 325 16 455 40 47 8 102 15 122 15 20 0 47 4 60 9 13 5 57 17 98 26
41 9 90 23 108 31 19 8 52 14 74 14 21 0 53 7 71 16 30 16 43 19 92 23 19 2
19 2 2 12 -13 8 -32 8 -65 0 -26 -6 -90 -13 -142 -16 -52 -2 -111 -7 -130 -10
-19 -4 -68 -9 -107 -12 -61 -4 -73 -2 -73 11 0 22 13 27 51 16 19 -6 48 -7 66
-4 26 5 32 10 29 27 -5 34 -32 45 -51 22 -12 -14 -18 -16 -22 -7 -2 7 -11 19
-19 26 -22 23 -17 29 21 23 37 -6 35 -9 40 54 0 9 6 23 13 32 12 15 7 47 -8
47 -13 0 -4 50 11 65 19 19 69 30 69 16 0 -6 5 -11 11 -11 5 0 8 4 5 9 -6 9
41 64 58 68 6 1 22 5 36 8 24 6 50 11 76 14 23 2 25 34 4 53 -35 33 -22 64 36
84 41 14 55 11 36 -8 -18 -18 -14 -38 8 -38 23 0 52 30 56 57 2 10 8 19 13 21
6 2 11 10 11 18 0 8 9 14 21 14 12 0 23 8 26 20 3 11 10 20 15 20 17 0 38 28
32 43 -3 10 5 18 25 25 17 6 36 22 42 36 7 14 15 23 19 21 16 -10 30 22 21 47
-9 25 2 58 20 58 5 0 14 -11 19 -25 10 -26 24 -32 35 -15 9 15 36 12 57 -7 14
-13 23 -14 41 -6 12 6 30 14 39 17 18 5 15 36 -4 36 -5 0 0 14 12 30 13 19 30
30 45 30 13 0 30 6 37 14 40 40 128 58 128 26 0 -6 9 -10 20 -10 15 0 20 7 20
25 0 14 5 25 11 25 5 0 8 4 5 9 -11 17 23 34 51 26 48 -14 58 -14 73 -5 8 5
15 19 16 32 1 13 9 40 18 60 9 21 16 44 16 53 0 9 9 15 25 15 14 0 25 3 25 8
0 4 25 5 55 4 52 -4 57 -2 86 29 17 18 40 38 51 44 21 11 36 34 68 108 12 26
28 51 36 54 8 3 14 10 13 17 -5 44 25 64 63 42 11 -7 21 -6 32 4 15 12 15 15
1 30 -24 26 -19 59 10 70 16 6 33 26 45 54 10 25 27 47 39 51 12 3 21 9 21 13
0 4 5 14 10 22 7 12 13 11 35 -10 22 -21 28 -22 35 -10 14 21 12 28 -10 50
-11 11 -20 28 -20 37 0 13 -3 14 -12 5 -15 -15 -38 3 -38 29 0 15 25 31 55 34
6 0 9 6 7 13 -1 7 7 13 18 13 11 1 26 2 32 3 7 0 19 14 26 29 11 22 11 31 2
43 -10 12 -7 14 18 14 22 0 32 -6 37 -20 6 -17 8 -18 21 -6 18 19 18 30 -2 22
-8 -3 -12 -2 -9 4 3 6 2 10 -3 10 -6 0 -7 14 -2 35 7 29 5 35 -9 36 -14 1 -14
2 2 6 9 2 18 9 18 14 3 19 5 24 13 38 7 10 5 13 -5 9 -8 -3 -22 -9 -31 -13
-25 -10 -33 18 -16 55 7 17 21 33 31 36 9 3 15 10 12 15 -4 5 0 9 7 10 7 0 3
5 -9 11 -13 6 -23 17 -23 25 0 7 -5 13 -11 13 -6 0 -18 7 -26 16 -9 9 -26 14
-39 11 -13 -2 -21 0 -18 5 3 4 2 18 -1 29 -6 18 -12 20 -43 14 -21 -4 -40 -12
-43 -17 -7 -10 -25 -8 -60 6 -10 4 -23 0 -33 -9 -20 -21 -21 -35 -1 -35 20 0
29 -24 17 -46 -9 -17 -73 -44 -104 -44 -10 0 -18 -6 -18 -14 0 -8 -8 -24 -19
-37 -16 -20 -21 -21 -35 -10 -26 22 -19 38 34 72 52 34 60 46 36 55 -15 6
-103 -21 -123 -38 -19 -15 -16 -55 6 -77 31 -31 35 -58 11 -66 -12 -4 -26 -16
-32 -28 -5 -12 -23 -33 -39 -46 l-30 -23 -37 26 c-21 14 -52 29 -70 32 -18 4
-35 11 -38 15 -9 16 -64 10 -64 -6 0 -8 6 -15 14 -15 7 0 19 -7 26 -15 10 -12
9 -15 -7 -15 -10 0 -24 5 -30 11 -19 19 -51 2 -46 -25 4 -18 0 -26 -16 -31
-17 -5 -21 -13 -18 -43 2 -31 6 -38 27 -40 33 -5 47 -17 52 -47 5 -25 -17 -55
-40 -55 -7 0 -12 -7 -12 -15 0 -15 -12 -20 -23 -9 -3 4 0 13 8 21 10 9 13 24
8 41 -8 35 -29 73 -35 66 -6 -6 -38 70 -38 90 0 16 -71 49 -96 44 -23 -4 -29
-31 -12 -50 20 -21 20 -36 -2 -48 -26 -14 -25 -32 1 -56 20 -18 22 -18 51 -1
40 23 58 9 58 -49 0 -23 4 -45 8 -48 11 -7 2 -66 -10 -66 -5 0 -16 16 -24 35
-8 19 -21 35 -29 35 -9 0 -27 8 -42 17 -14 10 -46 17 -72 18 -30 0 -46 4 -46
13 0 6 -3 12 -7 12 -5 0 -12 0 -18 0 -5 0 -7 -6 -4 -14 6 -17 -18 -27 -37 -15
-19 12 -52 11 -44 -1 3 -5 2 -10 -3 -10 -5 0 -19 -9 -32 -20 -27 -23 -43 -25
-58 -7 -14 16 -5 28 33 47 24 12 30 23 31 48 1 27 -2 31 -17 27 -14 -5 -22 1
-31 22 -21 47 -38 54 -67 27 -14 -13 -32 -22 -41 -20 -8 3 -30 7 -47 11 -18 4
-33 11 -33 16 0 12 -37 12 -45 -1 -13 -22 -65 -10 -92 20 -14 17 -32 30 -38
30 -7 0 -18 6 -24 14 -24 29 -249 27 -259 -3 -5 -14 -77 -14 -104 0 -16 9 -18
13 -7 20 19 11 -33 31 -96 35 -27 2 -51 8 -53 14 -5 13 -32 13 -32 -1 0 -6
-10 -9 -22 -8 -13 2 -29 0 -36 -4 -29 -19 -72 -10 -114 25 -51 42 -119 78
-147 78 -22 0 -30 9 -36 42 -5 23 -41 58 -60 57 -5 0 -19 -6 -29 -14 -21 -16
-46 -20 -46 -7 0 4 14 23 30 42 30 35 39 73 20 85 -5 3 -10 19 -10 34 0 15 -3
31 -6 34 -12 12 -44 -14 -44 -35 0 -52 -114 -105 -152 -71 -22 19 -22 32 -4
67 12 23 15 25 26 11 21 -26 50 -37 76 -31 34 9 31 43 -8 83 -39 40 -74 43
-90 8 -14 -31 -31 -32 -55 -2 -14 18 -24 22 -38 16 -44 -17 -63 3 -30 31 22
18 19 57 -5 65 -11 3 -20 12 -20 19 0 7 -14 19 -32 27 -22 9 -35 25 -43 49 -7
19 -22 40 -35 47 -13 6 -30 24 -38 40 -8 15 -28 43 -43 61 -16 18 -29 38 -29
44 0 6 -10 30 -22 54 -20 41 -20 45 -5 86 22 56 21 71 -2 92 -11 10 -23 31
-26 47 -4 16 -14 33 -23 38 -14 8 -15 14 -6 28 12 19 -3 43 -26 43 -10 0 -14
21 -10 50 1 8 13 25 26 39 13 13 24 26 25 30 0 3 2 21 4 39 3 32 27 61 53 62
14 0 17 20 2 20 -11 0 -14 49 -2 51 4 1 22 3 40 5 58 4 69 28 45 94 -13 34
-12 50 3 50 11 0 13 -6 9 -20 -4 -12 0 -26 9 -35 13 -14 19 -10 50 31 47 62
44 89 -12 89 -22 0 -46 6 -53 13 -7 6 -18 12 -25 12 -19 0 -22 24 -5 38 12 10
13 15 4 18 -7 3 -23 14 -35 25 l-23 19 24 20 c17 15 22 26 17 45 -4 14 -11 25
-17 25 -6 0 -8 4 -5 9 4 5 -3 7 -14 4 -11 -3 -20 0 -20 6 0 6 7 11 15 11 13 0
14 4 4 22 -6 12 -20 31 -30 42 -18 19 -20 24 -23 56 -1 8 -7 14 -14 12 -7 -1
-12 4 -12 11 0 10 -13 13 -42 13 -32 -1 -43 3 -46 15 -1 9 4 19 13 23 10 4 14
2 9 -6 -5 -7 -3 -8 7 -3 24 15 49 39 49 47 0 15 -39 8 -49 -9 -10 -17 -10 -17
-11 -1 0 10 -11 20 -25 24 -14 3 -25 10 -25 15 0 5 -6 9 -14 9 -8 0 -22 10
-31 23 l-17 22 7 -25 7 -25 -20 23 c-11 13 -23 23 -26 22 -18 -4 -27 9 -33 45
-10 66 -29 80 -62 44 -11 -12 -34 -23 -52 -24 -23 -2 -28 0 -18 7 10 7 5 8
-16 5 -16 -2 -36 -6 -44 -8 -8 -2 -23 14 -38 41 -13 25 -31 50 -39 57 -9 6
-18 30 -21 52 -3 22 -12 46 -19 52 -8 6 -14 20 -14 30 0 11 -9 27 -20 36 -11
10 -20 21 -20 26 0 4 -9 27 -20 49 -26 54 -25 64 5 104 14 18 25 36 25 39 0 8
-27 71 -42 100 -6 11 -10 44 -9 73 1 30 -3 59 -8 66 -5 6 -11 31 -14 56 -3 25
-10 61 -16 80 -10 32 -14 35 -48 35 -37 0 -38 0 -45 48 -3 27 -9 51 -12 54
-12 12 -57 -29 -62 -56 -5 -22 -13 -30 -36 -35 -33 -6 -52 4 -70 37 -8 16 -6
23 12 37 36 27 20 50 -34 50 -40 0 -44 2 -41 20 2 11 0 18 -5 15 -13 -8 -24
15 -12 27 8 8 6 20 -4 40 -13 25 -13 33 -2 46 24 30 37 60 30 67 -4 4 -8 11
-8 16 -1 5 -2 14 -3 19 0 6 -13 10 -27 10 -36 0 -64 17 -64 41 0 17 3 18 21 9
15 -8 24 -8 34 0 20 16 4 64 -23 68 -21 3 -27 -6 -23 -35 1 -7 -2 -13 -7 -13
-13 0 -26 122 -13 129 10 7 -7 101 -19 101 -4 0 -3 21 1 47 11 55 6 73 -17 73
-12 0 -15 7 -12 25 3 14 1 25 -3 25 -5 0 -9 -8 -10 -17 -1 -10 -5 -2 -10 17
-5 19 -8 76 -7 126 1 71 -2 95 -15 114 -20 29 -22 53 -4 81 10 17 9 22 -8 35
-15 11 -20 25 -18 60 1 39 -2 46 -23 54 -29 11 -31 33 -5 67 20 24 20 24 0 44
-10 10 -19 32 -19 48 0 16 -6 34 -14 40 -8 7 -14 26 -15 44 -5 147 -9 187 -18
199 -13 16 -14 68 -2 68 5 0 9 5 9 10 0 6 -7 10 -15 10 -8 0 -15 7 -15 15 0 8
-7 15 -15 15 -9 0 -12 -6 -9 -17 5 -15 3 -15 -10 1 -9 11 -16 36 -16 57 0 35
-20 66 -33 52 -10 -10 -37 18 -37 38 0 11 -5 19 -10 19 -6 0 -9 3 -9 8 1 4 1
15 0 26 -1 14 -4 16 -15 7 -10 -8 -19 -6 -38 12 -14 13 -30 21 -36 19 -8 -2
-11 10 -10 37 1 22 -4 46 -10 54 -7 8 -9 17 -5 20 3 4 0 13 -6 21 -15 18 -22
161 -10 193 6 16 4 25 -8 31 -11 7 -14 17 -9 36 4 15 11 24 16 21 5 -3 12 0
16 6 9 16 -16 30 -42 24 -14 -3 -24 1 -28 11 -17 45 3 69 56 68 21 -1 35 2 33
7 -3 4 -14 5 -25 2 -11 -3 -20 0 -20 6 0 6 -5 10 -11 8 -32 -7 -57 153 -39
249 10 52 9 66 -4 92 -9 17 -16 33 -16 36 0 11 78 82 102 93 23 11 28 10 33
-6 7 -24 -11 -71 -27 -71 -8 -1 -6 -6 5 -14 14 -11 15 -15 5 -19 -7 -3 -4 -6
8 -6 23 -1 45 34 52 84 2 17 5 31 7 33 2 2 23 -2 47 -9 40 -12 91 -44 96 -61
4 -14 11 -13 34 6 12 11 40 20 62 22 22 2 42 7 44 13 2 6 19 13 39 17 19 4 37
13 40 20 6 16 39 19 48 5 3 -5 1 -12 -5 -16 -17 -11 -11 -25 11 -25 11 0 18 4
15 9 -3 4 5 6 19 4 15 -3 36 4 57 19 18 14 41 28 51 31 9 4 17 14 17 22 0 9 4
14 9 11 5 -3 28 1 52 9 24 9 62 16 84 16 22 0 69 2 105 5 50 4 77 1 115 -14
48 -19 51 -19 92 -1 48 21 95 23 68 3 -9 -7 -13 -18 -9 -28 9 -23 21 -20 40 9
9 13 36 35 60 47 24 12 44 24 44 28 0 3 16 4 36 2 20 -3 48 1 62 8 15 7 38 18
52 24 14 6 28 15 32 21 5 6 8 5 8 -3 0 -8 -9 -16 -20 -19 -11 -3 -20 -9 -20
-15 0 -11 32 6 50 26 7 9 27 16 45 16 40 0 66 34 63 82 -3 28 1 33 22 36 13 2
37 15 53 28 34 28 72 31 87 7 7 -12 10 -13 7 -3 -6 23 11 50 32 50 13 0 18 -5
14 -18 -3 -13 5 -21 31 -30 35 -13 40 -23 37 -67 -3 -29 -22 -75 -32 -75 -12
0 -11 -47 1 -55 19 -12 10 -33 -20 -44 -23 -7 -30 -16 -30 -35 0 -28 -63 -106
-85 -106 -16 0 -40 -28 -31 -37 3 -3 16 -1 29 5 12 5 37 13 56 16 33 6 33 5
27 -25 -3 -18 -1 -36 7 -45 27 -33 49 -49 74 -54 34 -6 40 -25 15 -46 -16 -13
-19 -25 -15 -53 7 -42 23 -66 23 -33 0 12 5 22 10 22 6 0 10 -4 10 -10 0 -5 8
-11 18 -11 16 -1 16 -2 0 -6 -10 -2 -18 -13 -18 -23 0 -9 -6 -23 -14 -30 -8
-6 -13 -17 -10 -25 10 -26 -13 -24 -47 5 -19 16 -42 29 -51 30 -24 0 -33 -43
-19 -91 10 -32 9 -43 -3 -61 -10 -16 -15 -53 -15 -123 0 -119 6 -276 12 -281
2 -2 20 3 40 11 21 8 37 14 38 13 6 -19 4 -67 -3 -80 -10 -21 -54 -24 -61 -5
-8 18 -27 -12 -27 -44 0 -14 -11 -38 -24 -52 -24 -26 -40 -71 -34 -98 2 -10
-5 -13 -23 -11 -34 3 -39 -5 -83 -116 -27 -70 -39 -118 -46 -195 -6 -56 -18
-131 -26 -167 -28 -115 -19 -357 15 -368 6 -2 11 -12 11 -21 0 -27 58 -89 90
-96 16 -3 30 -14 33 -26 3 -11 14 -19 26 -19 12 0 21 -5 21 -11 0 -27 42 -69
78 -75 37 -7 62 -24 62 -43 0 -5 15 -15 34 -21 19 -6 36 -16 38 -21 2 -6 24
-13 48 -16 25 -3 54 -12 65 -19 11 -8 30 -14 42 -14 16 0 27 -8 33 -25 5 -14
17 -28 26 -32 13 -5 13 -7 2 -14 -10 -7 -10 -9 2 -9 8 1 32 13 53 29 23 18 45
27 57 24 15 -4 24 3 37 27 10 18 37 52 61 75 23 24 42 50 42 59 0 9 3 16 8 16
4 0 31 24 61 53 29 28 67 57 84 63 31 10 36 16 56 67 9 23 16 27 50 27 30 0
49 8 80 34 23 19 51 38 64 42 12 3 30 13 39 22 13 11 29 13 60 8 59 -9 147
-37 181 -56 27 -17 77 -16 77 1 0 15 48 10 64 -7 27 -26 8 -37 -54 -31 -52 6
-60 4 -84 -18 -14 -13 -26 -35 -26 -48 0 -20 7 -26 43 -35 114 -29 325 -32
416 -6 112 32 251 179 251 265 0 20 -1 20 -37 -2 -21 -13 -69 -47 -108 -76
-45 -34 -80 -53 -97 -53 -45 0 -32 23 27 49 30 14 65 35 77 48 19 20 20 25 7
37 -8 8 -39 20 -69 28 -49 12 -56 17 -66 47 -6 19 -24 43 -40 55 -16 11 -35
29 -42 39 -10 13 -21 16 -46 12 -23 -5 -36 -2 -45 9 -18 21 -89 52 -164 72
-93 24 -191 6 -302 -57 -55 -31 -92 -35 -87 -8 2 10 -2 9 -11 -3 -8 -10 -20
-18 -27 -18 -7 0 -27 -9 -44 -19 -32 -20 -50 -20 -149 -3 -64 12 -77 18 -77
35 0 18 -66 67 -91 67 -40 0 -117 50 -135 89 -9 20 -34 55 -55 78 -22 24 -39
52 -39 63 0 13 -29 50 -71 93 -74 75 -185 224 -151 203 13 -8 15 1 12 80 -2
66 19 114 64 150 20 16 36 34 36 40 0 6 11 22 24 35 24 25 39 76 25 85 -4 2
-5 12 -2 21 4 11 3 14 -5 9 -8 -5 -12 0 -12 14 0 12 4 19 9 16 5 -3 18 12 30
34 11 22 19 40 16 40 -2 0 20 48 50 106 32 62 55 120 55 138 0 17 7 72 16 121
11 62 17 159 18 310 2 202 4 229 28 325 15 58 32 137 39 175 6 39 16 79 22 90
14 28 47 203 41 220 -3 8 6 29 20 48 31 40 33 73 10 177 -18 79 -38 135 -54
145 -5 3 -7 19 -3 35 3 17 0 36 -7 45 -17 20 -50 87 -50 101 0 6 -20 29 -45
52 -30 27 -45 49 -45 65 0 25 -16 37 -50 37 -29 0 -32 16 -11 58 11 22 17 42
14 46 -10 10 -81 7 -88 -4 -3 -5 -14 -10 -23 -10 -15 1 -15 2 -2 13 22 18 19
51 -5 55 -11 2 -35 11 -54 20 l-34 16 -33 -37 -34 -36 -21 49 c-31 71 -46 81
-73 47 -12 -15 -26 -27 -31 -27 -6 1 -22 18 -37 40 -16 24 -39 42 -55 46 -15
4 -63 24 -107 45 -69 33 -85 38 -137 35 -46 -3 -59 -1 -59 10 0 11 -13 14 -52
12 l-53 -3 3 36 c3 34 1 36 -39 48 -40 12 -44 12 -60 -8 -24 -29 -38 -26 -51
9 -14 42 -43 56 -73 36 -30 -20 -45 -20 -45 -1 0 8 7 15 16 15 9 0 14 7 12 18
-4 20 -58 41 -112 41 -47 1 -146 52 -189 98 -36 38 -56 41 -82 13 -21 -23 -55
-29 -36 -6 23 27 3 42 -54 42 -62 -1 -81 12 -101 71 -17 47 -18 83 -3 83 6 0
9 7 5 15 -3 8 -1 15 4 15 6 0 9 5 7 12 -1 7 8 17 20 22 13 6 24 23 28 43 3 18
18 44 33 58 30 28 24 39 -26 52 l-32 8 22 32 c21 29 69 68 54 44 -4 -7 -1 -9
8 -5 9 3 13 16 11 34 -3 19 3 34 21 51 13 12 24 29 24 37 0 9 -3 12 -7 9 -4
-4 -13 7 -20 24 -12 29 -11 32 17 56 33 27 39 63 15 83 -19 16 -12 26 28 45
18 8 37 27 44 42 46 108 49 131 17 119 -18 -7 -28 11 -12 21 27 17 51 55 57
88 3 20 11 36 16 37 15 2 34 30 35 51 0 9 8 25 18 35 9 11 26 31 36 45 10 15
24 27 31 27 7 0 15 18 19 40 5 31 12 43 32 50 14 6 23 14 19 19 -6 11 11 54
38 94 19 27 25 46 26 80 1 10 9 17 21 17 12 0 20 7 20 18 0 9 14 30 30 45 17
16 30 35 30 42 0 8 13 29 29 47 16 18 30 42 33 53 2 11 11 19 21 19 9 -1 17 4
17 12 0 8 4 14 10 14 5 0 22 10 36 23 14 12 40 22 57 23 85 3 244 28 258 40
15 13 39 19 39 10 0 -19 -25 -62 -45 -78 -14 -11 -32 -33 -40 -49 -15 -27 -14
-29 5 -29 18 0 149 108 268 220 48 46 50 46 67 23 11 -15 15 -15 29 -4 12 10
14 17 6 25 -13 13 -13 46 0 46 6 0 22 -7 35 -16 22 -14 31 -14 92 -1 37 8 91
23 118 34 28 11 67 20 86 21 21 1 72 20 120 44 68 35 93 43 134 42 48 -1 95
12 95 26 0 4 18 7 39 6 24 0 47 6 58 17 22 19 83 23 129 7 45 -15 145 -19 187
-7 33 9 40 8 60 -11 13 -12 33 -22 45 -22 11 0 25 -6 29 -14 13 -21 52 -38 73
-31 17 6 37 40 32 58 -1 4 9 7 23 7 14 0 33 8 43 18 9 9 36 32 59 50 23 18 45
41 48 52 3 10 20 27 36 38 25 15 39 17 72 11 36 -7 44 -5 60 13 32 38 149 44
174 9z m-462 -118 c16 -15 14 -17 -15 -29 -17 -8 -29 -18 -25 -24 8 -13 -5
-13 -25 0 -11 7 -11 10 -2 10 7 0 11 4 7 10 -5 8 28 50 39 50 3 0 12 -7 21
-17z m-1610 -323 c3 -5 -1 -10 -10 -10 -9 0 -13 5 -10 10 3 6 8 10 10 10 2 0
7 -4 10 -10z m4035 -124 c0 -3 -4 -8 -10 -11 -5 -3 -10 -1 -10 4 0 6 5 11 10
11 6 0 10 -2 10 -4z m1541 -2614 c5 -12 7 -22 4 -22 -8 0 -35 32 -35 42 0 17
23 3 31 -20z m-6201 -171 c0 -17 71 -51 106 -51 19 0 47 -6 62 -14 15 -7 51
-19 80 -26 28 -6 52 -16 52 -21 0 -5 -51 -9 -112 -10 -196 -1 -321 -8 -348
-18 -45 -17 -128 -23 -136 -9 -4 6 -2 14 4 16 7 2 18 9 25 16 7 7 18 11 25 8
6 -2 12 1 12 7 0 6 12 11 26 11 14 0 22 4 19 10 -8 13 53 50 83 50 12 0 22 4
22 9 0 9 44 29 68 30 6 1 12 -3 12 -8z m363 -228 c45 -14 68 -36 54 -50 -4 -3
-19 0 -34 6 -35 14 -125 32 -178 36 -71 4 -69 3 -54 21 11 13 26 15 89 9 41
-3 97 -13 123 -22z m-82 -163 c28 -16 25 -58 -6 -72 -19 -8 -31 -8 -50 0 -36
17 -32 46 10 70 25 14 22 14 46 2z m-441 -75 c-27 -82 28 -216 133 -323 76
-78 113 -97 197 -106 64 -6 67 -5 143 38 43 25 89 48 101 53 30 10 91 91 124
161 21 47 23 62 17 118 -8 74 -1 79 51 37 19 -16 50 -41 69 -57 19 -15 35 -35
35 -43 0 -32 30 -73 55 -73 13 0 31 -7 40 -16 14 -15 14 -19 2 -31 -10 -11
-20 -11 -41 -3 -38 14 -41 13 -53 -12 -8 -17 -25 -26 -68 -36 -103 -24 -200
-60 -200 -74 0 -9 12 -12 40 -10 22 1 92 2 156 1 94 -1 117 2 128 15 15 17 71
22 71 6 0 -5 -7 -18 -15 -27 -8 -10 -21 -26 -28 -36 -9 -13 -26 -19 -53 -19
-21 0 -62 -10 -91 -24 -58 -27 -99 -30 -126 -9 -12 8 -31 11 -52 8 -18 -3 -41
-1 -51 5 -14 8 -28 5 -60 -14 -35 -20 -53 -24 -101 -22 -52 3 -58 5 -61 26 -3
22 -7 23 -82 21 -60 -2 -84 1 -104 14 -18 12 -31 15 -44 8 -20 -10 -129 4
-149 21 -7 6 -13 16 -13 24 0 7 -13 32 -29 56 -31 47 -71 154 -71 191 0 13 11
34 25 47 26 25 33 65 13 73 -7 2 9 18 36 35 58 37 74 31 56 -23z m6450 -59 c0
-3 -4 -8 -10 -11 -5 -3 -10 -1 -10 4 0 6 5 11 10 11 6 0 10 -2 10 -4z m-8060
-406 c0 -5 -7 -10 -15 -10 -8 0 -15 5 -15 10 0 6 7 10 15 10 8 0 15 -4 15 -10z
m-102 -32 c-3 -7 -15 -15 -28 -16 -21 -3 -22 -2 -11 12 16 19 44 21 39 4z
m-14 -283 c3 -8 2 -15 -3 -15 -5 0 -14 7 -21 15 -10 12 -10 15 3 15 8 0 17 -7
21 -15z m8300 -210 c-4 -8 -7 -15 -9 -15 -2 0 -5 7 -9 15 -3 9 0 15 9 15 9 0
12 -6 9 -15z m-5698 -986 c-4 -35 -19 -54 -35 -45 -16 11 -13 46 4 46 8 0 15
7 15 15 0 8 4 15 10 15 5 0 8 -14 6 -31z m954 -681 c0 -10 -18 -9 -45 2 -16 6
-14 8 13 7 17 0 32 -4 32 -9z m-1530 -2368 c0 -11 -7 -20 -15 -20 -15 0 -21
21 -8 33 12 13 23 7 23 -13z m367 -252 c-3 -8 -6 -5 -6 6 -1 11 2 17 5 13 3
-3 4 -12 1 -19z m-17 -3 c0 -8 -4 -15 -10 -15 -5 0 -10 7 -10 15 0 8 5 15 10
15 6 0 10 -7 10 -15z m50 -55 c0 -5 -5 -10 -11 -10 -5 0 -7 5 -4 10 3 6 8 10
11 10 2 0 4 -4 4 -10z m-730 -965 c7 -9 8 -15 2 -15 -5 0 -12 7 -16 15 -3 8
-4 15 -2 15 2 0 9 -7 16 -15z m6720 -155 c0 -31 -27 -49 -37 -24 -7 20 14 67
27 59 6 -3 10 -19 10 -35z m-6565 -30 c3 -5 2 -10 -4 -10 -5 0 -13 5 -16 10
-3 6 -2 10 4 10 5 0 13 -4 16 -10z m6641 -125 c7 -18 -16 -49 -27 -38 -10 10
0 53 12 53 6 0 12 -7 15 -15z m-2816 -454 c0 -5 9 -13 20 -16 27 -9 25 -25 -2
-25 -19 0 -20 -2 -8 -10 20 -13 4 -13 -21 0 -26 15 -25 60 3 60 4 0 8 -4 8 -9z
m-115 -85 c0 -23 -6 -31 -38 -43 -21 -9 -40 -13 -43 -10 -9 9 5 42 27 66 28
30 54 24 54 -13z m-165 -110 c0 -3 -4 -8 -10 -11 -5 -3 -10 -1 -10 4 0 6 5 11
10 11 6 0 10 -2 10 -4z m271 -86 c5 0 9 -4 9 -10 0 -5 -7 -10 -15 -10 -11 0
-15 10 -14 33 1 23 3 26 6 10 2 -13 9 -23 14 -23z m-411 -23 c0 -8 -3 -17 -7
-21 -5 -4 -8 -13 -8 -19 0 -7 -10 -11 -23 -9 -14 2 -22 -2 -22 -12 0 -9 -13
-22 -30 -31 -16 -9 -30 -20 -30 -25 0 -6 -4 -10 -10 -10 -5 0 -10 15 -10 34 0
33 13 46 47 46 19 0 43 24 43 44 0 10 9 16 25 16 14 0 25 -6 25 -13z m-1449
-22 c-1 -15 -24 -12 -29 3 -3 9 2 13 12 10 10 -1 17 -7 17 -13z m1250 5 c10
-6 19 -15 19 -20 0 -15 -42 -50 -53 -43 -5 3 -13 0 -17 -7 -7 -11 -12 -10 -25
3 -15 15 -14 18 9 38 14 12 23 26 20 31 -7 11 23 10 47 -2z m13 -128 c7 -12
-39 -62 -57 -62 -28 0 -30 21 -6 45 24 24 54 32 63 17z m-504 -147 c-9 -8 -20
-11 -28 -6 -11 7 -11 11 2 23 8 9 14 18 12 21 -2 2 4 -2 13 -9 13 -12 13 -16
1 -29z m420 25 c0 -5 -2 -10 -4 -10 -3 0 -8 5 -11 10 -3 6 -1 10 4 10 6 0 11
-4 11 -10z m190 -90 c0 -21 -24 -28 -35 -10 -8 14 3 30 21 30 8 0 14 -9 14
-20z m-10 -317 c0 -17 -19 -35 -29 -29 -18 12 -12 36 9 36 11 0 20 -3 20 -7z
m6412 -193 c29 -12 71 -29 93 -39 22 -11 65 -30 95 -42 30 -13 100 -50 155
-83 105 -62 387 -206 490 -250 68 -28 132 -62 234 -123 38 -22 94 -48 123 -57
94 -28 99 -47 21 -75 -41 -15 -175 -90 -264 -149 -30 -20 -78 -52 -105 -69
-186 -122 -268 -191 -506 -422 -232 -227 -433 -443 -524 -565 -33 -44 -83
-106 -111 -136 -82 -91 -404 -475 -468 -559 -33 -43 -87 -114 -121 -157 -33
-44 -80 -108 -104 -144 -44 -67 -160 -290 -160 -308 0 -5 -9 -29 -20 -53 -21
-47 -26 -79 -11 -79 5 0 37 55 71 123 71 140 117 219 174 297 90 126 250 325
381 477 77 89 185 214 240 278 55 64 127 149 160 190 133 165 216 255 423 459
200 196 261 253 421 389 108 92 412 288 549 354 l135 65 92 -45 c50 -25 113
-63 140 -85 49 -38 215 -137 305 -181 25 -12 68 -35 95 -51 48 -29 116 -63
200 -100 70 -31 149 -70 190 -94 22 -13 115 -61 207 -107 163 -82 201 -108
136 -95 -24 5 -45 -1 -91 -25 -67 -35 -206 -93 -342 -143 -330 -123 -529 -227
-871 -457 -207 -139 -486 -414 -752 -743 -26 -32 -87 -104 -136 -160 -49 -55
-100 -119 -114 -141 -14 -22 -57 -85 -97 -140 -39 -55 -91 -134 -115 -175 -23
-41 -51 -84 -60 -95 -23 -26 -276 -467 -322 -560 -39 -81 -265 -497 -405 -748
-115 -208 -139 -254 -289 -567 -163 -342 -249 -554 -295 -729 -33 -128 -19
-163 21 -53 11 31 30 75 40 97 11 22 34 74 51 115 34 79 142 301 225 460 27
52 61 120 75 150 14 30 63 125 108 210 46 85 131 245 188 355 58 110 108 205
113 210 4 6 28 48 53 95 25 47 52 99 61 115 9 17 27 53 40 80 27 58 226 421
263 480 13 22 52 88 87 146 34 59 75 123 90 144 41 53 127 182 160 240 25 43
94 138 242 332 27 35 207 251 379 454 60 71 238 229 366 325 184 139 397 263
629 368 223 100 304 133 485 196 120 41 255 107 255 125 0 17 45 21 55 5 4 -6
21 -17 38 -25 18 -8 55 -28 82 -44 28 -16 56 -30 63 -30 33 -2 350 -161 457
-229 28 -17 55 -32 62 -32 6 0 31 -15 55 -33 24 -18 61 -43 83 -57 22 -13 64
-43 92 -67 29 -25 81 -59 116 -78 78 -40 205 -132 270 -194 48 -46 56 -61 34
-61 -6 0 -33 -11 -59 -25 -110 -59 -227 -94 -463 -140 -267 -53 -504 -165
-761 -361 -266 -202 -538 -481 -770 -788 -247 -328 -333 -443 -379 -507 -47
-66 -76 -108 -235 -344 -179 -264 -453 -701 -498 -792 -82 -168 -260 -507
-355 -678 -168 -300 -797 -1553 -822 -1635 -10 -32 -98 -228 -141 -313 -83
-165 -187 -473 -234 -697 -52 -246 -102 -415 -170 -570 -20 -47 -43 -103 -50
-125 -7 -22 -52 -123 -101 -224 -89 -183 -89 -183 -89 -261 0 -45 5 -82 11
-85 15 -10 46 21 54 53 3 15 24 64 46 110 22 45 55 119 74 165 18 45 58 138
88 207 55 127 112 310 167 543 43 182 129 433 211 621 22 50 49 114 58 141 10
28 28 69 39 91 11 21 25 59 32 82 6 24 31 83 56 132 24 49 44 91 44 94 0 3 25
57 55 121 30 63 55 118 55 121 0 16 281 589 339 691 6 10 29 58 50 106 22 48
56 114 75 145 48 80 117 215 361 697 116 231 223 438 236 460 14 22 28 47 32
55 9 21 132 214 198 312 31 46 88 130 126 188 119 178 224 328 351 500 309
417 361 488 416 569 32 47 79 109 105 137 25 28 75 83 111 123 96 107 428 421
494 467 225 155 450 281 577 322 35 12 118 33 184 47 249 54 338 77 425 110
49 19 98 35 109 35 11 0 25 9 31 20 6 11 17 20 24 20 17 0 139 -131 201 -216
28 -38 79 -100 115 -139 36 -38 82 -90 102 -115 78 -95 236 -250 270 -264 37
-16 99 -80 149 -154 l29 -44 -2 -236 -3 -237 -65 -1 c-106 -2 -326 -88 -470
-183 -35 -24 -90 -56 -121 -72 -139 -70 -283 -165 -419 -279 -71 -60 -466
-455 -527 -529 -26 -31 -77 -88 -113 -127 -36 -39 -92 -102 -126 -140 -34 -38
-107 -121 -164 -184 -128 -143 -203 -235 -224 -277 -25 -49 -1 -41 58 19 81
82 227 212 276 245 25 17 54 40 64 52 49 54 87 10 131 -151 53 -198 65 -326
65 -711 0 -395 3 -436 65 -947 74 -609 72 -591 116 -885 11 -78 19 -127 49
-295 10 -63 31 -194 45 -290 13 -96 29 -204 34 -240 9 -55 32 -231 82 -605 6
-44 17 -120 24 -170 8 -49 23 -164 35 -255 25 -197 64 -440 122 -765 6 -33 14
-89 18 -125 5 -36 18 -117 29 -180 11 -63 21 -133 21 -155 0 -22 9 -89 20
-150 11 -60 26 -159 34 -220 9 -60 22 -157 30 -215 14 -104 22 -162 52 -415 8
-71 26 -206 40 -300 14 -93 32 -217 39 -275 8 -58 19 -130 25 -160 60 -313 78
-442 95 -662 15 -186 24 -272 70 -618 24 -188 50 -351 60 -378 15 -42 47 -319
70 -617 8 -104 18 -202 21 -218 4 -18 1 -28 -8 -31 -30 -10 -1662 -15 -1680
-5 -10 5 -18 17 -18 27 0 21 -35 216 -60 337 -25 117 -65 340 -96 535 -14 85
-31 193 -39 240 -7 47 -19 130 -25 185 -7 55 -20 156 -31 225 -18 125 -33 252
-49 430 -5 52 -20 196 -34 320 -14 124 -32 326 -41 450 -9 124 -22 322 -30
440 -9 118 -20 287 -25 375 -5 88 -12 192 -15 230 -3 39 -10 138 -16 220 -12
177 -48 535 -53 544 -2 3 -9 69 -15 146 -7 77 -23 237 -37 355 -57 484 -65
551 -79 685 -22 204 -39 330 -80 605 -20 135 -42 295 -50 355 -29 222 -34 263
-54 400 -11 77 -25 167 -31 200 -5 33 -12 78 -16 100 -3 22 -30 162 -59 310
-30 149 -59 306 -65 350 -6 44 -15 107 -21 141 -5 33 -9 85 -9 115 0 91 -30
105 -66 32 -28 -57 -19 -203 26 -433 5 -25 14 -76 21 -115 7 -38 27 -137 46
-220 35 -153 65 -334 84 -505 5 -52 23 -187 39 -300 15 -113 31 -234 35 -270
3 -36 10 -94 15 -130 6 -36 15 -112 20 -170 23 -235 77 -677 90 -732 5 -24 10
-65 10 -93 0 -27 9 -101 20 -165 11 -63 31 -216 45 -340 14 -124 35 -295 45
-380 24 -184 65 -606 80 -810 6 -80 24 -338 40 -575 16 -236 32 -468 36 -515
3 -47 12 -146 20 -220 15 -148 24 -242 54 -550 20 -203 41 -369 62 -485 6 -33
14 -98 18 -145 5 -47 18 -134 29 -195 19 -103 35 -212 62 -415 20 -153 78
-466 100 -541 11 -34 10 -42 -2 -50 -9 -6 -357 -9 -954 -7 l-940 3 -34 37
c-38 42 -46 42 -54 0 l-6 -29 -122 -6 c-196 -11 -547 -8 -554 4 -4 5 -6 127
-6 269 2 319 -15 715 -35 835 -9 50 -20 122 -25 160 -11 88 -43 225 -57 251
-10 16 -11 13 -12 -23 0 -23 6 -91 14 -150 36 -275 41 -370 41 -844 0 -385 -3
-480 -14 -493 -12 -15 -95 -16 -911 -16 -706 0 -900 3 -908 13 -7 8 -7 44 -1
107 4 52 13 147 19 210 6 63 22 225 36 360 72 700 83 812 104 1110 6 74 15
176 20 225 5 50 14 155 20 235 5 80 12 175 15 213 3 37 12 163 20 280 18 251
30 412 45 562 6 61 22 259 36 440 27 371 46 587 68 785 28 248 54 527 76 792
5 59 11 111 13 115 3 5 8 79 11 166 3 87 8 163 12 168 8 13 7 775 -1 838 -11
90 -16 111 -24 111 -9 0 -19 -125 -26 -345 -9 -233 -23 -440 -45 -644 -11
-102 -27 -247 -35 -321 -8 -74 -19 -193 -25 -265 -26 -332 -34 -419 -61 -700
-16 -165 -33 -356 -39 -425 -5 -69 -15 -172 -21 -230 -11 -103 -17 -179 -39
-475 -6 -82 -15 -202 -21 -265 -5 -63 -14 -182 -19 -265 -15 -241 -26 -376
-80 -995 -27 -315 -61 -673 -70 -740 -5 -41 -15 -135 -20 -209 -6 -74 -13
-137 -15 -141 -4 -6 -11 -81 -30 -320 -2 -25 -8 -90 -14 -145 -6 -55 -14 -129
-17 -165 -4 -36 -12 -68 -18 -72 -16 -11 -1688 -9 -1705 1 -10 7 -12 22 -7 62
3 30 11 113 16 184 11 144 30 331 60 595 11 96 27 231 35 300 8 69 23 197 34
286 11 88 25 216 31 285 5 68 15 158 20 199 6 41 18 145 26 230 23 219 30 283
54 470 21 170 33 269 49 412 6 46 17 139 25 208 9 69 20 170 26 225 5 55 21
199 35 320 14 121 32 285 40 365 8 80 20 177 25 215 6 39 15 113 20 165 14
148 82 493 185 935 18 77 44 194 59 260 15 66 34 145 42 176 8 30 14 74 14 98
0 23 5 52 11 63 11 21 25 74 54 216 8 40 21 94 29 120 31 101 74 270 86 332 6
36 39 164 72 285 33 121 66 243 74 270 7 28 27 95 44 150 17 55 37 125 45 155
7 30 22 89 33 130 12 41 30 109 41 150 11 41 26 98 34 125 8 28 20 73 27 100
7 28 26 98 41 157 16 59 29 117 29 128 0 11 9 48 19 82 11 35 26 90 34 123 8
33 25 96 37 140 12 44 28 107 35 140 7 33 18 83 25 110 6 28 19 79 27 115 8
36 26 106 39 155 13 50 37 144 55 210 17 66 39 147 49 180 10 33 21 78 24 100
9 53 24 121 51 230 40 161 47 189 56 234 5 24 7 46 4 49 -8 9 -27 -50 -75
-243 -26 -104 -56 -210 -65 -235 -35 -95 -144 -486 -174 -625 -6 -27 -22 -90
-36 -140 -14 -49 -37 -139 -51 -200 -14 -60 -41 -162 -59 -225 -19 -63 -48
-171 -66 -240 -37 -145 -56 -214 -99 -365 -18 -60 -48 -166 -67 -235 -19 -69
-54 -188 -78 -265 -72 -233 -106 -358 -145 -535 -4 -19 -22 -87 -38 -150 -90
-343 -106 -404 -128 -505 -13 -60 -33 -146 -43 -190 -11 -44 -31 -132 -46
-195 -46 -204 -57 -253 -91 -380 -42 -164 -79 -321 -104 -445 -11 -55 -29
-139 -39 -186 -22 -96 -54 -319 -71 -484 -6 -60 -17 -168 -25 -240 -8 -71 -17
-161 -20 -200 -8 -87 -53 -452 -60 -481 -3 -12 -12 -75 -20 -140 -9 -66 -24
-186 -35 -269 -27 -204 -69 -558 -80 -680 -6 -55 -17 -154 -25 -220 -8 -66
-19 -163 -24 -215 -23 -215 -33 -303 -52 -465 -11 -93 -27 -222 -34 -285 -8
-63 -25 -209 -40 -325 -14 -115 -29 -253 -35 -305 -5 -52 -16 -156 -24 -230
-8 -74 -18 -180 -22 -235 -4 -55 -12 -103 -18 -107 -6 -4 -351 -8 -767 -8
-574 0 -758 3 -767 12 -9 9 -12 75 -12 238 0 124 -7 365 -16 535 -14 288 -14
373 1 755 3 61 19 219 40 385 8 61 17 137 20 170 7 75 40 301 67 460 11 66 24
152 28 190 5 39 20 129 33 200 14 72 28 157 32 190 4 33 15 96 25 140 10 44
23 127 29 185 20 190 121 826 161 1015 10 50 30 160 45 245 14 85 33 189 41
230 8 41 25 147 39 235 24 153 49 292 80 455 7 41 19 102 25 135 6 33 24 114
40 180 16 66 47 201 70 300 22 99 54 236 70 305 16 69 39 168 51 220 66 290
224 801 424 1375 43 121 94 272 115 335 56 169 114 326 149 402 33 72 85 205
131 333 49 137 161 401 265 626 30 64 63 138 74 165 21 55 125 250 193 364 56
94 159 288 261 495 122 246 137 276 137 287 0 12 67 151 309 640 98 200 209
433 246 518 74 172 180 392 263 545 30 55 75 138 100 185 25 47 63 117 84 155
55 102 172 341 198 405 36 90 343 673 418 795 17 28 57 94 89 148 32 54 67
113 78 131 11 18 36 53 56 77 20 24 49 64 65 89 117 182 377 417 509 459 75
25 65 25 127 1z m-7122 -265 c0 -8 -2 -15 -4 -15 -2 0 -11 -3 -19 -6 -9 -3
-16 3 -20 15 -4 17 0 21 19 21 15 0 24 -6 24 -15z m-2020 -244 c0 -5 -7 -14
-15 -21 -13 -10 -15 -9 -15 9 0 12 6 21 15 21 8 0 15 -4 15 -9z m14298 -3999
c1 -394 -1 -621 -7 -617 -12 7 -53 140 -81 261 -25 107 -102 319 -141 389 -15
28 -38 60 -51 73 -26 24 -82 39 -91 25 -3 -5 13 -38 37 -74 60 -91 106 -210
155 -399 16 -63 43 -153 60 -200 17 -47 40 -123 51 -170 12 -47 31 -123 43
-170 l22 -85 2 -4912 3 -4913 -170 0 c-168 0 -170 0 -174 23 -3 12 -10 85 -16
162 -34 450 -52 618 -85 775 -25 122 -30 149 -59 355 -16 108 -56 491 -81 775
-17 193 -20 218 -58 435 -15 83 -31 184 -38 225 -33 228 -40 276 -53 393 -9
71 -18 136 -20 145 -3 9 -15 103 -26 207 -18 174 -42 345 -70 500 -6 33 -15
96 -20 140 -6 44 -17 130 -25 190 -8 61 -19 146 -25 190 -17 139 -51 343 -145
880 -13 77 -34 199 -45 270 -11 72 -25 155 -30 185 -5 30 -14 93 -19 140 -39
329 -72 584 -96 735 -8 50 -21 142 -30 205 -9 63 -20 131 -25 150 -10 40 -27
142 -40 245 -5 39 -19 131 -30 205 -29 186 -40 262 -72 520 -6 47 -14 101 -19
120 -5 19 -9 55 -9 80 0 25 -7 81 -15 125 -8 44 -20 121 -25 170 -6 50 -14
113 -20 140 -19 99 -33 423 -27 655 5 242 -2 367 -27 480 -8 36 -25 110 -37
165 -19 87 -26 104 -55 131 -19 17 -34 34 -34 38 0 5 17 25 39 45 21 20 89 92
152 161 214 237 504 531 579 589 88 67 109 80 255 159 61 32 169 92 240 134
183 105 369 181 430 175 20 -2 20 -10 23 -625z m-19623 -1623 c4 -21 -22 -42
-29 -24 -7 20 4 47 17 42 6 -2 11 -10 12 -18z m-45 -79 c0 -5 -4 -10 -10 -10
-5 0 -10 5 -10 10 0 6 5 10 10 10 6 0 10 -4 10 -10z m-40 -85 c0 -8 -4 -15
-10 -15 -5 0 -10 7 -10 15 0 8 5 15 10 15 6 0 10 -7 10 -15z m128 -232 c-5
-26 -38 -29 -38 -4 0 15 6 21 21 21 14 0 19 -5 17 -17z m3717 -153 c3 -5 -9
-45 -28 -87 -52 -118 -86 -206 -101 -260 -8 -26 -32 -97 -53 -158 -92 -255
-189 -560 -204 -637 -5 -32 -16 -73 -23 -90 -7 -18 -19 -78 -26 -133 -16 -136
-18 -145 -35 -145 -16 0 -70 69 -81 104 -4 11 -20 36 -35 54 -16 18 -29 43
-29 56 0 13 -13 40 -30 61 -39 49 -45 89 -27 172 9 37 19 118 22 178 6 93 11
120 37 173 44 95 174 260 322 412 73 74 152 162 176 195 52 70 91 115 101 115
4 0 11 -4 14 -10z m-4189 -683 c4 -81 3 -127 -4 -127 -16 0 -22 38 -22 137 0
82 6 130 16 120 2 -2 6 -60 10 -130z m39 -286 c4 -31 15 -80 26 -109 10 -29
19 -61 19 -71 0 -17 16 -59 56 -148 8 -17 14 -43 14 -58 0 -23 -2 -26 -15 -15
-8 7 -15 18 -15 25 0 8 -15 53 -34 102 -47 121 -75 226 -82 303 -5 59 -4 63
10 46 8 -10 18 -44 21 -75z m4921 -77 c21 -32 53 -66 71 -76 39 -24 40 -38 9
-120 -13 -35 -26 -90 -31 -122 -4 -33 -11 -71 -16 -85 -11 -28 -51 -261 -73
-431 -31 -231 -38 -388 -36 -829 0 -244 -4 -511 -10 -595 -6 -83 -15 -212 -20
-286 -6 -74 -15 -205 -20 -290 -6 -85 -19 -263 -30 -395 -11 -132 -20 -265
-20 -295 0 -30 -9 -158 -19 -285 -11 -126 -24 -304 -30 -395 -6 -91 -15 -230
-21 -310 -10 -140 -39 -471 -61 -675 -6 -55 -15 -136 -19 -180 -23 -216 -43
-386 -65 -545 -43 -310 -56 -417 -84 -710 -11 -110 -32 -286 -56 -455 -8 -55
-17 -140 -20 -190 -10 -143 -34 -298 -48 -307 -6 -4 -355 -8 -774 -8 -599 0
-763 3 -770 13 -9 15 -6 47 13 112 7 28 25 138 39 245 14 107 36 256 50 330
27 149 61 357 70 435 4 28 19 131 36 230 33 208 63 461 119 1020 6 61 20 189
30 285 34 299 39 352 51 470 5 63 14 140 19 170 5 30 12 123 15 205 3 83 12
182 20 220 8 39 22 140 30 225 9 85 23 216 30 290 8 74 18 167 24 205 5 39 14
120 20 180 28 271 42 400 46 419 6 24 32 262 45 416 10 112 55 437 71 507 5
24 13 71 18 105 21 137 96 460 124 528 8 19 24 89 37 155 13 66 24 126 26 133
5 19 48 14 62 -8 16 -26 179 -132 267 -174 63 -31 146 -61 261 -96 51 -15 253
-7 284 12 23 15 43 68 34 91 -8 21 -36 22 -74 2 -23 -12 -44 -13 -117 -5 -104
11 -160 22 -190 38 -12 7 -29 12 -37 12 -28 0 -229 103 -266 136 -19 17 -59
46 -88 64 -66 40 -74 56 -66 122 10 76 28 104 92 145 31 20 77 55 102 78 91
82 159 135 173 135 9 0 37 -18 62 -40 25 -22 54 -40 63 -40 24 0 121 68 199
140 96 88 124 95 164 38 34 -46 65 -53 109 -24 21 14 54 45 75 70 21 25 43 46
51 46 7 0 30 -25 50 -56z m-4086 -1224 c0 -5 -7 -10 -15 -10 -8 0 -15 5 -15
10 0 6 7 10 15 10 8 0 15 -4 15 -10z m-751 -147 c0 -35 -3 -42 -8 -28 -5 11
-7 27 -5 35 1 8 3 21 3 28 1 6 3 12 6 12 3 0 5 -21 4 -47z m425 -85 c8 -171
33 -404 52 -493 9 -38 18 -117 21 -174 5 -86 4 -103 -8 -99 -10 3 -17 36 -25
111 -6 58 -15 112 -21 119 -12 15 -20 50 -28 133 -3 33 -11 86 -17 118 -8 42
-7 362 2 415 0 1 4 2 9 2 4 0 11 -60 15 -132z m127 25 c2 -200 14 -344 29
-374 5 -8 12 -53 16 -100 6 -74 9 -87 28 -95 26 -11 30 -42 21 -150 -6 -76
-17 -115 -29 -103 -3 3 -9 57 -12 120 -3 63 -12 138 -21 166 -8 29 -19 88 -24
130 -5 43 -13 105 -18 138 -13 84 -13 315 -1 315 6 0 10 -21 11 -47z m-525
-1850 c-2 -16 -8 -77 -11 -138 -3 -60 -15 -177 -25 -260 -10 -82 -21 -179 -24
-215 -4 -36 -11 -99 -16 -140 -19 -142 -40 -355 -50 -515 -6 -88 -15 -185 -20
-215 -20 -117 -40 -557 -55 -1195 -9 -417 -16 -590 -26 -665 -40 -316 -53
-548 -37 -676 12 -100 24 -252 20 -264 -4 -12 -92 -13 -354 -3 -208 7 -198 2
-177 76 11 42 24 41 34 -3 5 -22 13 -30 28 -31 12 0 36 -2 52 -4 62 -6 75 3
73 49 -1 22 2 88 6 146 5 58 8 114 7 125 0 11 6 38 13 60 20 57 40 235 32 286
-15 102 -15 151 -1 230 41 221 43 248 24 306 -12 36 -4 76 14 70 7 -2 14 -23
17 -48 7 -62 22 -33 20 39 -1 31 -3 83 -3 114 -1 38 3 61 12 70 12 11 13 10 8
-4 -4 -10 -2 -18 3 -18 6 0 10 11 10 25 0 17 6 25 18 25 10 0 13 3 6 8 -6 4
-10 25 -9 47 11 185 16 248 21 256 3 6 14 3 27 -8 11 -10 17 -12 13 -5 -5 8 0
12 13 12 12 0 21 5 21 10 0 13 -37 50 -49 50 -6 0 -9 9 -8 20 1 11 5 20 10 20
4 0 5 5 2 10 -11 18 30 5 59 -18 42 -33 49 -20 42 72 -3 44 -6 86 -5 91 6 50
7 245 1 245 -4 0 -9 -12 -10 -27 -3 -36 -11 -42 -27 -19 -10 13 -12 41 -9 99
2 44 6 82 8 85 12 11 25 -12 21 -38 -2 -21 1 -30 11 -30 23 0 19 71 -4 77 -14
3 -18 11 -14 29 2 13 8 21 13 18 5 -3 13 5 18 18 9 26 -5 79 -26 91 -18 11
-16 42 3 73 15 22 15 24 0 18 -13 -5 -16 0 -16 25 0 17 5 31 11 31 7 0 0 11
-14 24 -19 18 -29 40 -36 83 -5 32 -10 63 -12 68 -1 6 1 19 5 30 4 11 13 32
18 48 6 15 11 38 11 52 0 14 3 26 8 26 5 1 15 2 22 3 16 1 22 47 6 56 -9 6 -8
12 4 25 19 18 20 42 8 159 -5 43 -14 82 -21 86 -15 10 -1 35 20 35 8 0 16 8
18 18 2 10 -3 17 -12 17 -9 0 -16 6 -17 13 0 10 -2 10 -6 0 -10 -26 -22 -12
-12 14 7 18 6 30 -1 37 -14 14 -12 26 5 26 8 0 15 -5 15 -12 0 -6 2 -9 5 -6 8
8 -6 39 -15 33 -6 -4 -7 9 -1 93 0 12 8 22 16 22 8 0 16 5 16 10 1 6 2 14 3
19 0 5 4 13 9 17 15 15 6 25 -20 23 -40 -3 -63 10 -62 35 0 15 2 17 7 6 4 -9
23 -16 47 -17 22 -1 31 1 20 4 -11 3 -24 9 -29 13 -5 5 1 6 13 3 24 -6 28 9 6
27 -21 17 -19 37 4 50 11 5 22 23 26 40 4 16 11 30 16 30 5 0 9 4 9 10 0 5 -7
7 -15 4 -9 -4 -15 0 -15 10 0 9 -6 16 -14 16 -7 0 -16 9 -19 20 -4 17 0 20 34
20 38 0 39 -1 40 -37 1 -21 3 -30 6 -20 5 21 23 23 23 2 0 -8 7 -15 15 -15 24
0 18 -40 -7 -50 -19 -7 -20 -9 -5 -9 11 -1 23 -13 30 -31 6 -16 15 -30 19 -30
14 0 21 72 14 148 -4 45 -3 72 2 64 17 -25 42 15 42 66 0 42 20 128 35 152 13
21 26 9 21 -17z m-406 -1105 c0 -19 -2 -20 -10 -8 -13 19 -13 30 0 30 6 0 10
-10 10 -22z m4 -153 c-6 -34 -8 -36 -13 -16 -4 13 -5 42 -2 65 3 38 4 39 13
16 5 -13 6 -43 2 -65z m6 -116 c0 -5 -4 -9 -10 -9 -5 0 -10 7 -10 16 0 8 5 12
10 9 6 -3 10 -10 10 -16z m-51 -1146 c1 -87 4 -182 6 -210 3 -29 1 -53 -4 -53
-22 0 -26 53 -22 338 2 148 18 86 20 -75z m-259 -1576 c0 -44 -3 -58 -11 -50
-13 13 -24 86 -15 108 12 33 26 2 26 -58z"/>
<path d="M7165 28690 c3 -5 11 -10 16 -10 6 0 7 5 4 10 -3 6 -11 10 -16 10 -6
0 -7 -4 -4 -10z"/>
<path d="M7082 28572 c-25 -8 -10 -22 24 -22 23 0 34 4 32 12 -4 12 -35 17
-56 10z"/>
<path d="M7080 28444 c0 -9 5 -14 12 -12 18 6 21 28 4 28 -9 0 -16 -7 -16 -16z"/>
<path d="M6965 28168 c-29 -16 -35 -29 -22 -50 25 -38 75 -9 63 37 -7 28 -12
29 -41 13z"/>
<path d="M6860 28076 c0 -9 30 -35 43 -36 4 0 7 7 7 15 0 8 -5 15 -11 15 -5 0
-8 4 -4 9 3 6 -4 9 -15 8 -11 -1 -20 -5 -20 -11z"/>
<path d="M6836 27845 c-3 -9 0 -15 9 -15 9 0 12 6 9 15 -4 8 -7 15 -9 15 -2 0
-5 -7 -9 -15z"/>
<path d="M11817 27437 c-16 -12 -42 -36 -59 -54 -25 -26 -36 -31 -63 -26 -25
4 -38 0 -55 -17 -22 -22 -24 -23 -107 -10 -66 11 -89 11 -104 2 -23 -15 -109
-16 -109 -2 0 6 -10 10 -23 10 -13 0 -32 7 -43 15 -29 22 -51 18 -81 -15 -20
-23 -35 -30 -62 -30 -72 2 -137 -16 -183 -49 -38 -27 -52 -32 -77 -26 -25 5
-41 1 -78 -24 -47 -31 -57 -34 -104 -32 -14 1 -64 -18 -111 -43 -48 -26 -95
-46 -105 -46 -32 0 -175 -98 -235 -160 -31 -33 -63 -60 -70 -60 -7 0 -34 -11
-61 -25 -48 -26 -59 -25 -31 2 17 18 15 64 -4 71 -7 2 -25 -11 -40 -29 -15
-18 -50 -58 -79 -89 -58 -62 -73 -93 -66 -132 3 -15 -2 -36 -12 -51 -9 -14
-15 -34 -13 -44 1 -10 -2 -25 -7 -33 -7 -12 -6 -13 7 -3 8 7 18 10 21 6 13
-12 7 -21 -19 -27 -17 -5 -24 -12 -20 -21 3 -8 2 -15 -3 -15 -16 0 -20 13 -10
31 14 26 -7 99 -34 121 -31 24 -56 22 -61 -4 -3 -13 -8 -36 -11 -53 -6 -28 -7
-75 -2 -120 1 -14 -6 -21 -25 -25 -35 -6 -78 -64 -78 -103 0 -17 -11 -45 -25
-63 -30 -40 -32 -60 -5 -74 24 -13 26 -33 4 -51 -12 -10 -14 -23 -9 -61 6 -40
4 -53 -11 -70 -15 -16 -19 -34 -17 -82 3 -71 4 -78 27 -128 9 -21 16 -46 16
-56 0 -25 45 -66 64 -59 9 4 16 13 16 22 0 8 4 15 9 15 11 0 27 39 30 74 2 22
92 79 104 67 7 -7 7 -18 -2 -35 -11 -19 -11 -29 0 -52 19 -39 45 -43 54 -7 16
66 97 102 111 49 3 -14 3 -29 0 -35 -13 -20 16 -22 48 -2 18 12 36 21 40 21
15 0 3 -26 -29 -61 -19 -22 -35 -48 -35 -59 0 -12 19 -39 43 -60 38 -36 47
-40 98 -40 56 0 103 -20 81 -34 -7 -4 -12 -19 -12 -34 0 -21 11 -36 49 -64 27
-20 66 -44 86 -52 21 -9 52 -29 70 -45 18 -16 51 -34 72 -41 53 -16 146 -53
159 -62 6 -4 43 -19 83 -32 70 -24 76 -24 112 -9 22 8 39 19 39 24 0 5 7 6 14
3 12 -4 14 1 10 23 -3 15 -11 33 -19 39 -8 6 -10 15 -5 23 6 10 24 12 73 7 36
-3 72 -9 81 -12 14 -6 66 39 66 57 0 17 -21 19 -42 5 -13 -9 -43 -16 -70 -16
-42 0 -49 3 -63 30 -33 65 -10 94 81 104 60 7 114 -6 114 -26 0 -15 21 -8 54
17 18 14 36 25 40 25 17 0 113 91 162 154 41 53 54 64 54 47 0 -27 -20 -75
-51 -122 -45 -69 -62 -104 -60 -124 1 -13 -10 -29 -29 -43 -16 -12 -30 -31
-30 -42 0 -32 36 -34 89 -4 l49 28 32 -27 c38 -32 42 -33 64 -8 15 17 29 19
109 16 51 -2 119 -8 152 -14 68 -12 174 -14 255 -5 48 5 60 11 92 46 32 34 42
40 67 35 32 -7 75 19 85 51 3 10 20 26 37 36 22 13 27 21 19 26 -9 5 -10 20
-5 46 3 22 7 58 8 81 2 47 16 57 33 24 6 -11 14 -18 17 -14 4 3 1 13 -7 22 -8
9 -16 27 -18 41 -2 15 -14 30 -31 38 -25 12 -28 18 -24 46 3 17 8 41 12 54 6
18 4 22 -13 22 -12 0 -24 5 -27 10 -4 6 -15 8 -25 5 -12 -4 -20 0 -24 13 -4
10 -22 24 -41 32 -22 9 -38 24 -46 44 -7 17 -14 34 -16 37 -2 4 3 13 11 22 13
13 13 17 -4 32 -19 17 -20 17 -20 -3 0 -26 -26 -20 -33 8 -8 32 -97 67 -219
85 -23 4 -56 22 -90 49 -50 42 -54 44 -79 30 -15 -7 -29 -18 -31 -24 -9 -29
-102 -17 -195 25 -29 14 -62 25 -73 25 -11 0 -41 7 -67 16 -39 14 -89 16 -267
16 -120 -1 -232 -4 -250 -7 -32 -7 -45 -8 -137 -20 -68 -9 -92 10 -27 20 67
10 75 14 81 37 5 16 12 19 32 16 14 -3 28 -1 31 3 3 5 -4 9 -15 9 -12 0 -21 5
-21 12 0 17 43 78 56 78 16 0 44 34 49 60 5 28 59 80 83 80 10 0 24 11 30 25
11 24 15 25 65 19 36 -4 57 -3 61 5 4 6 23 11 42 11 42 0 57 26 28 47 -23 17
-80 13 -77 -4 2 -7 -7 -13 -18 -13 -20 0 -20 2 -7 23 8 12 32 30 53 40 34 17
44 17 79 6 23 -7 45 -16 51 -21 14 -12 37 -10 70 8 17 9 43 23 58 32 24 12 28
20 25 43 -4 27 -2 29 26 29 17 0 40 7 50 15 11 8 36 15 55 15 37 1 81 28 81
51 0 7 9 3 20 -9 16 -17 25 -20 40 -12 22 12 46 5 54 -16 4 -11 18 -12 64 -8
39 4 62 3 66 -5 11 -18 50 -13 69 9 9 11 24 20 32 20 26 0 29 -30 5 -55 -23
-24 -22 -55 2 -55 7 0 33 11 57 25 23 14 45 25 46 25 2 0 5 -12 7 -27 3 -25 7
-28 43 -29 22 -1 45 -2 52 -3 6 0 20 -18 30 -38 17 -33 25 -38 60 -41 35 -3
43 -8 54 -33 10 -27 10 -35 -6 -61 -17 -30 -17 -31 1 -42 11 -6 43 -11 73 -11
34 0 56 -5 58 -12 3 -7 -14 -30 -37 -52 l-41 -39 29 -7 c17 -3 38 -15 48 -26
17 -19 17 -20 -4 -26 -23 -6 -28 -18 -12 -28 16 -10 50 5 50 21 0 23 61 46 78
30 19 -19 6 -41 -34 -55 -41 -15 -43 -44 -4 -49 40 -5 73 -35 74 -69 1 -37 74
-123 105 -123 25 0 28 -15 5 -28 -14 -8 -14 -10 0 -21 12 -10 27 -10 69 -1 37
7 62 8 80 1 32 -12 43 0 25 29 -11 17 -9 27 11 64 18 36 22 53 16 86 -6 36 -4
43 20 62 l28 22 -27 21 c-20 16 -28 33 -33 73 -4 34 -2 57 6 66 10 12 10 22 0
50 -11 31 -11 38 4 54 9 10 17 29 17 41 0 18 -5 22 -27 21 -44 -3 -53 -1 -53
13 0 7 -13 26 -30 42 -16 16 -30 34 -30 39 0 13 -85 96 -99 96 -5 0 -14 14
-20 31 -10 28 -13 30 -46 23 -31 -6 -36 -3 -52 25 -10 17 -30 35 -45 40 -36
13 -38 52 -4 71 14 7 22 18 19 26 -6 16 -49 19 -58 4 -9 -15 -47 -12 -69 5
-11 8 -28 15 -38 15 -10 0 -35 15 -55 34 -25 22 -53 36 -81 41 -48 8 -52 28
-6 33 29 4 60 22 35 22 -7 0 -38 23 -70 50 -32 28 -62 50 -68 50 -5 0 -20 11
-32 24 -23 25 -60 36 -121 39 -19 1 -44 10 -54 20 -24 21 -25 21 -59 -6z m89
-52 c4 -8 10 -13 14 -10 11 7 40 -5 40 -17 0 -9 -18 -6 -68 13 -13 5 -20 13
-17 19 9 15 25 12 31 -5z m62 -156 c-2 -6 -8 -10 -13 -10 -5 0 -11 4 -13 10
-2 6 4 11 13 11 9 0 15 -5 13 -11z m-1948 -532 c0 -8 -9 -22 -20 -32 -19 -18
-20 -17 -20 7 0 13 3 28 7 31 11 12 33 8 33 -6z m2760 -55 c-17 -6 -42 7 -35
18 4 6 13 5 26 -3 10 -6 15 -13 9 -15z m-125 -182 c3 -5 1 -10 -4 -10 -6 0
-11 5 -11 10 0 6 2 10 4 10 3 0 8 -4 11 -10z m-1467 -234 c51 -7 98 -18 104
-24 7 -7 27 -12 45 -12 31 0 143 -47 143 -61 0 -7 -143 25 -162 37 -36 23 -93
-16 -84 -57 5 -25 2 -27 -34 -31 -21 -2 -51 0 -67 5 -15 4 -84 11 -153 14
-102 5 -120 8 -100 17 82 35 92 75 22 90 -44 9 -54 21 -24 29 37 10 221 6 310
-7z m407 -147 c11 -16 1 -19 -13 -3 -7 8 -8 14 -3 14 5 0 13 -5 16 -11z m-318
-5 c-3 -3 -12 -4 -19 -1 -8 3 -5 6 6 6 11 1 17 -2 13 -5z m103 -19 c0 -8 -9
-15 -20 -15 -11 0 -20 7 -20 15 0 8 9 15 20 15 11 0 20 -7 20 -15z m276 -9
c10 -8 15 -18 11 -22 -4 -4 -17 2 -29 14 -25 25 -13 30 18 8z m-566 -71 c10
-12 10 -21 2 -40 -14 -31 -66 -35 -81 -7 -23 43 48 84 79 47z m-389 -42 c0 -5
2 -46 3 -93 2 -99 20 -148 85 -225 23 -27 49 -62 57 -78 13 -25 13 -28 -2 -34
-9 -3 -31 -1 -48 5 -43 16 -104 5 -118 -22 -6 -11 -19 -29 -30 -39 -11 -11
-17 -26 -13 -36 8 -25 -15 -41 -43 -30 -32 12 -25 81 12 116 26 24 26 26 10
44 -9 10 -27 19 -39 19 -30 0 -123 85 -131 118 -4 15 -16 37 -27 50 -31 33
-13 56 47 60 49 3 69 23 47 45 -16 16 -14 32 3 18 17 -14 46 -1 114 54 41 33
71 44 73 28z m-482 -229 c22 -28 36 -63 28 -71 -3 -2 -17 3 -30 12 -14 9 -34
16 -44 15 -42 -5 -53 0 -53 23 0 15 9 28 23 35 35 17 54 14 76 -14z m274 -246
c23 -14 40 -35 43 -55 3 -17 1 -17 -43 8 -49 27 -57 35 -49 48 9 14 21 14 49
-1z m340 -5 c25 -5 28 -9 22 -32 -10 -40 -39 -86 -58 -89 -13 -3 -15 3 -11 30
7 46 -7 64 -35 47 -11 -8 -21 -23 -21 -35 0 -11 -9 -29 -21 -40 -21 -19 -21
-18 -40 5 -25 31 -24 34 10 49 17 8 31 22 33 35 4 26 45 49 73 42 11 -3 33 -8
48 -12z"/>
<path d="M12523 27074 c-9 -24 22 -50 45 -38 16 7 18 14 11 32 -10 26 -47 30
-56 6z"/>
<path d="M13097 26930 c-21 -24 -22 -36 -3 -43 16 -6 41 42 29 54 -5 5 -16 0
-26 -11z"/>
<path d="M12840 26850 c0 -5 9 -15 19 -22 10 -6 17 -18 14 -25 -3 -7 1 -13 8
-13 11 -1 10 -4 -2 -13 -9 -7 -18 -24 -21 -39 -4 -22 -1 -28 13 -28 13 0 20
12 27 46 12 57 7 79 -24 93 -30 14 -34 14 -34 1z"/>
<path d="M9750 26733 c1 -22 23 -53 39 -53 7 0 9 9 5 28 -10 39 -44 59 -44 25z"/>
<path d="M12087 26659 c-18 -10 -24 -39 -8 -39 20 0 41 13 41 25 0 20 -13 25
-33 14z"/>
<path d="M9515 26558 c13 -41 35 -68 70 -82 19 -8 35 -20 35 -25 0 -6 5 -11
10 -11 6 0 10 7 10 15 0 8 -5 15 -10 15 -6 0 -13 8 -17 18 -9 25 -75 92 -91
92 -9 0 -11 -7 -7 -22z"/>
<path d="M12182 26539 c2 -6 8 -10 13 -10 5 0 11 4 13 10 2 6 -4 11 -13 11 -9
0 -15 -5 -13 -11z"/>
<path d="M11480 26387 c-14 -6 -28 -16 -32 -21 -7 -11 1 -36 10 -33 14 4 60
-35 65 -54 7 -26 50 -22 55 5 6 29 -47 117 -68 115 -3 0 -16 -6 -30 -12z"/>
<path d="M11360 26370 c0 -5 -8 -10 -17 -10 -13 0 -14 -3 -5 -12 12 -12 65
-14 83 -2 9 5 7 11 -6 21 -22 15 -55 17 -55 3z"/>
<path d="M12694 26018 c-6 -10 20 -38 37 -38 17 0 17 31 -1 40 -24 13 -27 13
-36 -2z"/>
<path d="M11132 25372 c-18 -14 -22 -24 -17 -45 10 -39 37 -33 74 16 11 14 11
20 1 32 -16 19 -30 19 -58 -3z"/>
<path d="M7821 25301 c-19 -12 -5 -31 23 -31 29 0 39 10 25 27 -13 15 -28 16
-48 4z"/>
<path d="M14850 25225 c-19 -7 -53 -14 -75 -14 -60 -1 -167 -51 -266 -123
-100 -74 -243 -221 -284 -294 -16 -27 -36 -58 -45 -69 -32 -37 -70 -112 -65
-126 10 -28 -21 -104 -48 -117 -30 -14 -36 -39 -12 -48 24 -10 18 -43 -11 -54
-14 -6 -32 -17 -40 -25 -13 -13 -20 -12 -55 5 -21 11 -39 16 -39 10 0 -5 -17
-18 -37 -27 -30 -14 -41 -28 -53 -61 -14 -40 -13 -47 9 -110 29 -84 54 -126
96 -157 l32 -25 59 27 c32 14 78 42 101 61 l43 34 -2 77 c-1 42 1 86 5 98 3
14 -4 53 -19 95 -13 39 -24 72 -24 73 0 1 10 14 23 28 12 13 36 48 52 77 58
99 84 130 109 130 17 0 41 17 76 54 41 44 61 57 98 65 39 8 50 7 72 -8 45 -32
61 -33 85 -7 24 26 63 28 148 11 l39 -8 -3 34 c-2 19 0 40 5 47 10 16 75 16
81 0 2 -7 14 -44 26 -83 17 -52 22 -89 20 -142 -2 -63 0 -72 13 -67 27 10 38
73 47 268 6 138 5 193 -3 203 -6 8 -10 37 -9 64 1 45 -2 54 -33 85 -37 37 -60
41 -116 19z"/>
<path d="M13452 25202 c-17 -11 -6 -58 16 -67 22 -8 34 8 30 41 -3 30 -23 40
-46 26z"/>
<path d="M14700 24755 c-7 -8 -23 -15 -35 -15 -19 0 -22 -4 -19 -32 2 -18 13
-46 25 -61 12 -17 18 -35 14 -47 -3 -11 -1 -29 5 -40 11 -20 12 -20 40 -3 40
23 46 44 18 64 -12 10 -26 15 -29 13 -11 -6 -21 53 -14 76 3 11 13 20 22 20
10 0 13 6 9 16 -3 9 -6 18 -6 20 0 10 -18 3 -30 -11z"/>
<path d="M13465 23583 c1 -16 3 -34 3 -40 3 -19 59 -16 66 3 12 30 7 42 -15
37 -14 -4 -25 0 -31 11 -14 25 -25 19 -23 -11z"/>
<path d="M13378 23442 c-11 -18 -14 -33 -8 -42 5 -8 6 -27 3 -43 -4 -19 -1
-32 8 -38 22 -14 29 -11 29 11 0 11 -4 20 -8 20 -12 0 -14 68 -2 75 12 7 14
45 2 45 -4 0 -15 -13 -24 -28z"/>
<path d="M14577 23435 c-9 -20 -17 -43 -17 -53 1 -28 50 35 50 64 0 34 -14 30
-33 -11z"/>
<path d="M14540 23349 c0 -5 5 -7 10 -4 6 3 10 8 10 11 0 2 -4 4 -10 4 -5 0
-10 -5 -10 -11z"/>
<path d="M13831 23238 c-33 -45 -56 -111 -45 -129 11 -19 73 -2 138 39 33 21
68 41 76 44 9 3 22 17 29 32 21 39 5 51 -50 35 -56 -15 -77 -14 -99 6 -16 15
-20 13 -49 -27z"/>
<path d="M13187 23223 c-11 -10 -8 -20 8 -27 10 -4 15 1 15 14 0 20 -11 26
-23 13z"/>
<path d="M6934 23136 c-10 -26 1 -51 22 -54 24 -3 38 20 29 49 -7 22 -43 25
-51 5z"/>
<path d="M9140 23010 c0 -11 5 -20 10 -20 6 0 10 9 10 20 0 11 -4 20 -10 20
-5 0 -10 -9 -10 -20z"/>
<path d="M13575 22840 c-3 -5 -4 -14 -1 -19 9 -13 46 -1 46 15 0 16 -36 19
-45 4z"/>
<path d="M13617 22643 c-13 -13 -7 -63 7 -63 21 0 29 17 22 46 -6 24 -17 30
-29 17z"/>
<path d="M8410 22491 c0 -11 5 -23 10 -26 6 -4 10 5 10 19 0 14 -4 26 -10 26
-5 0 -10 -9 -10 -19z"/>
<path d="M13590 22490 c0 -11 2 -20 5 -20 2 0 9 9 15 20 9 16 8 20 -5 20 -8 0
-15 -9 -15 -20z"/>
<path d="M6690 22440 c6 -11 15 -20 20 -20 14 0 12 9 -4 26 -21 20 -28 17 -16
-6z"/>
<path d="M7247 22342 c-10 -10 -17 -28 -17 -40 0 -17 6 -22 25 -22 31 0 53 43
34 66 -15 18 -23 18 -42 -4z"/>
<path d="M10355 21941 c-6 -5 -26 -11 -45 -13 -29 -2 -36 -7 -38 -28 -2 -14 3
-34 11 -44 13 -17 18 -18 43 -8 29 12 74 67 74 90 0 14 -32 16 -45 3z"/>
<path d="M13310 21930 c0 -5 5 -10 11 -10 5 0 7 5 4 10 -3 6 -8 10 -11 10 -2
0 -4 -4 -4 -10z"/>
<path d="M8386 21764 c-17 -10 -59 -17 -102 -18 -60 -2 -78 -7 -97 -24 -17
-16 -36 -22 -70 -22 -26 0 -47 -4 -47 -10 0 -5 -11 -12 -25 -16 -14 -3 -33
-17 -43 -29 -10 -13 -47 -35 -82 -50 -61 -26 -64 -26 -100 -10 -20 9 -49 15
-65 13 -23 -2 -32 2 -42 24 -19 37 -45 43 -97 19 -38 -16 -46 -25 -52 -55 -3
-20 -12 -36 -18 -36 -30 0 -116 -111 -116 -150 0 -19 101 -50 165 -50 l67 0
-4 -32 c-2 -27 2 -36 28 -53 17 -12 46 -38 64 -59 18 -20 52 -47 74 -59 42
-22 109 -40 101 -26 -11 16 45 18 77 2 64 -32 69 -34 78 -28 6 4 10 1 10 -4 0
-6 3 -10 8 -9 4 0 14 -2 22 -5 12 -5 72 -12 145 -17 6 0 33 2 62 6 41 5 52 11
57 28 7 24 -25 56 -55 56 -22 0 -38 28 -22 39 5 3 13 21 16 39 4 18 19 44 36
57 15 14 34 37 40 52 13 32 80 83 108 83 10 0 29 -7 42 -17 22 -15 26 -15 57
2 26 14 43 16 81 10 26 -5 65 -9 87 -9 33 -1 41 -6 57 -36 11 -19 19 -39 19
-45 1 -5 10 -21 21 -34 24 -29 31 -22 51 44 6 22 16 46 21 53 11 15 66 16 102
2 20 -8 34 -7 53 4 75 42 71 41 96 17 20 -19 28 -21 44 -12 26 14 68 14 94 0
20 -11 30 -5 41 26 2 6 17 5 39 -2 39 -11 51 -8 61 20 4 12 17 17 42 17 20 0
55 5 79 11 35 8 50 8 81 -5 20 -9 50 -16 64 -16 15 0 36 -6 46 -14 14 -10 36
-12 72 -9 50 5 83 -6 83 -27 0 -17 -70 -21 -99 -5 -41 21 -120 20 -128 -1 -7
-18 15 -36 35 -29 8 3 28 -7 45 -21 28 -24 36 -25 82 -19 69 10 144 10 179 0
25 -7 28 -6 23 9 -4 9 -2 16 3 16 6 0 10 -6 10 -14 0 -21 39 -46 71 -46 14 0
37 8 50 18 13 10 42 23 65 30 42 12 60 9 147 -26 35 -14 40 -14 82 7 25 12 45
28 45 35 0 7 -12 24 -27 38 -62 56 -165 84 -348 96 -100 6 -164 16 -225 34
-47 14 -116 31 -155 37 -38 7 -99 17 -135 23 -36 6 -79 20 -96 30 -17 10 -43
18 -56 18 -14 0 -42 11 -62 25 -20 14 -48 25 -62 25 -14 0 -37 6 -52 14 -16 8
-81 16 -163 21 -117 6 -141 4 -175 -10 -21 -10 -66 -19 -100 -21 -33 -2 -72
-7 -85 -13 -28 -10 -148 8 -171 26 -7 6 -33 14 -57 18 -24 4 -68 20 -96 36
-61 33 -61 33 -99 13z m994 -314 c0 -5 -2 -10 -4 -10 -3 0 -8 5 -11 10 -3 6
-1 10 4 10 6 0 11 -4 11 -10z"/>
<path d="M13598 21459 c-17 -9 -18 -44 -2 -146 7 -44 30 -42 50 5 29 68 -4
166 -48 141z"/>
<path d="M7610 21320 c0 -6 7 -10 15 -10 8 0 15 2 15 4 0 2 -7 6 -15 10 -8 3
-15 1 -15 -4z"/>
<path d="M7570 21269 c0 -5 5 -7 10 -4 6 3 10 8 10 11 0 2 -4 4 -10 4 -5 0
-10 -5 -10 -11z"/>
<path d="M9705 21200 c3 -5 8 -10 11 -10 2 0 4 5 4 10 0 6 -5 10 -11 10 -5 0
-7 -4 -4 -10z"/>
<path d="M8560 21108 c0 -18 20 -38 38 -38 24 0 10 45 -15 48 -14 2 -23 -2
-23 -10z"/>
<path d="M8455 21090 c-3 -5 1 -10 10 -10 9 0 13 5 10 10 -3 6 -8 10 -10 10
-2 0 -7 -4 -10 -10z"/>
<path d="M11225 20970 c-10 -17 12 -37 25 -24 8 8 6 15 -4 23 -10 9 -16 9 -21
1z"/>
<path d="M8845 20840 c-28 -13 -52 -17 -77 -13 -40 6 -68 -8 -68 -34 0 -8 12
-30 26 -49 25 -32 27 -64 4 -64 -5 0 -10 -9 -10 -19 0 -31 -26 -31 -49 0 -17
23 -28 29 -49 26 -24 -3 -27 -8 -30 -45 -3 -37 -1 -42 18 -42 12 0 35 -9 51
-20 26 -19 30 -20 58 -5 17 8 32 15 35 15 10 0 53 -46 59 -63 10 -27 42 -17
42 13 0 20 -5 25 -26 25 -25 -1 -25 1 -15 35 6 19 21 45 34 58 12 12 22 29 22
37 0 9 9 15 22 15 34 0 10 14 -29 17 -19 1 -38 4 -41 8 -13 13 10 15 69 6 59
-10 65 -9 87 11 31 30 25 59 -18 79 -58 27 -73 28 -115 9z"/>
<path d="M9055 20760 c-3 -5 -1 -10 4 -10 6 0 11 5 11 10 0 6 -2 10 -4 10 -3
0 -8 -4 -11 -10z"/>
<path d="M8280 20666 c0 -7 7 -19 15 -26 20 -16 38 -1 29 23 -7 20 -44 23 -44
3z"/>
<path d="M7860 20643 c0 -5 5 -15 10 -23 7 -12 9 -10 7 8 -1 19 -17 33 -17 15z"/>
<path d="M8557 20603 c-4 -3 -7 -11 -7 -17 0 -6 5 -5 12 2 6 6 9 14 7 17 -3 3
-9 2 -12 -2z"/>
<path d="M13107 20573 c-4 -3 -7 -15 -7 -26 0 -13 5 -17 16 -13 9 3 18 6 20 6
2 0 4 9 4 20 0 19 -20 27 -33 13z"/>
<path d="M13316 20519 c-23 -39 -45 -264 -28 -281 21 -21 56 18 94 104 l37 84
-18 60 c-14 49 -21 59 -42 62 -18 2 -29 -5 -43 -29z"/>
<path d="M7860 20455 c0 -8 5 -15 10 -15 6 0 10 7 10 15 0 8 -4 15 -10 15 -5
0 -10 -7 -10 -15z"/>
<path d="M12673 20333 c-3 -10 -8 -21 -10 -25 -6 -11 30 4 45 18 17 18 15 24
-8 24 -11 0 -23 -8 -27 -17z"/>
<path d="M12518 20159 c-10 -5 -22 -27 -28 -47 -5 -21 -25 -56 -44 -77 -29
-33 -42 -39 -78 -41 -59 -2 -58 -2 -58 -23 0 -24 36 -51 67 -51 41 0 119 95
151 183 21 59 19 72 -10 56z"/>
<path d="M12210 19840 c0 -5 4 -10 9 -10 6 0 13 5 16 10 3 6 -1 10 -9 10 -9 0
-16 -4 -16 -10z"/>
<path d="M12154 19642 c-6 -4 -16 -17 -23 -29 -10 -19 -9 -23 4 -23 18 0 45
23 45 39 0 14 -14 21 -26 13z"/>
<path d="M11980 19545 c-6 -8 -10 -21 -8 -30 3 -14 6 -13 26 5 12 12 20 25 17
31 -9 13 -21 11 -35 -6z"/>
<path d="M11837 19386 c-3 -8 -3 -17 0 -20 7 -7 33 13 33 25 0 15 -27 10 -33
-5z"/>
<path d="M11785 19329 c-10 -15 3 -25 16 -12 7 7 7 13 1 17 -6 3 -14 1 -17 -5z"/>
<path d="M8056 19234 c-10 -26 -7 -44 8 -44 7 0 16 8 18 18 9 35 -14 59 -26
26z"/>
<path d="M11620 19165 c-10 -12 -10 -19 -2 -27 17 -17 37 5 25 27 -9 15 -11
15 -23 0z"/>
<path d="M8160 19151 c0 -21 13 -41 26 -41 17 0 18 22 2 38 -14 14 -28 16 -28
3z"/>
<path d="M11280 19111 c0 -21 33 -34 48 -19 16 16 2 38 -24 38 -17 0 -24 -6
-24 -19z"/>
<path d="M10805 19089 c-9 -13 3 -59 14 -59 11 0 24 48 16 60 -8 13 -22 13
-30 -1z"/>
<path d="M10973 19055 c-42 -20 -60 -45 -48 -65 10 -17 21 -12 66 30 51 47 42
64 -18 35z"/>
<path d="M11570 19030 c0 -5 7 -10 15 -10 8 0 15 5 15 10 0 6 -7 10 -15 10 -8
0 -15 -4 -15 -10z"/>
<path d="M10815 18990 c-9 -15 -7 -16 33 -25 29 -6 33 -5 30 12 -4 21 -52 31
-63 13z"/>
<path d="M11200 18980 c0 -5 5 -10 11 -10 5 0 7 5 4 10 -3 6 -8 10 -11 10 -2
0 -4 -4 -4 -10z"/>
<path d="M11310 18979 c0 -5 5 -7 10 -4 6 3 10 8 10 11 0 2 -4 4 -10 4 -5 0
-10 -5 -10 -11z"/>
<path d="M11260 18957 c-46 -13 -47 -15 -25 -31 17 -12 22 -11 43 11 13 14 22
26 20 27 -2 2 -19 -2 -38 -7z"/>
<path d="M10930 18940 c0 -6 7 -10 15 -10 8 0 15 2 15 4 0 2 -7 6 -15 10 -8 3
-15 1 -15 -4z"/>
<path d="M11118 18944 c-3 -3 -4 -14 -1 -25 8 -29 49 -25 55 6 5 22 2 25 -22
25 -15 0 -29 -3 -32 -6z"/>
<path d="M8901 18892 c-12 -23 1 -45 25 -40 12 2 20 13 22 31 3 22 -1 27 -17
27 -11 0 -25 -8 -30 -18z"/>
<path d="M11385 18860 c4 -6 11 -8 16 -5 14 9 11 15 -7 15 -8 0 -12 -5 -9 -10z"/>
<path d="M11160 18829 c0 -5 5 -7 10 -4 6 3 10 8 10 11 0 2 -4 4 -10 4 -5 0
-10 -5 -10 -11z"/>
<path d="M11198 18755 c4 -37 18 -46 29 -19 3 9 -3 24 -14 35 -19 19 -19 19
-15 -16z"/>
<path d="M8795 18760 c-9 -14 13 -40 32 -40 10 0 13 6 9 16 -3 9 -6 20 -6 25
0 12 -27 11 -35 -1z"/>
<path d="M8970 18752 c0 -16 32 -52 46 -52 15 0 18 18 8 44 -6 16 -54 23 -54
8z"/>
<path d="M11274 18711 c6 -8 1 -10 -18 -5 -21 5 -27 2 -36 -21 -13 -33 -13
-35 3 -35 6 0 25 13 40 29 20 21 25 31 16 37 -8 4 -10 3 -5 -5z"/>
<path d="M10230 18681 c-13 -25 5 -38 19 -14 8 14 12 16 22 6 19 -19 29 -16
29 7 0 28 -55 28 -70 1z"/>
<path d="M9050 18664 c0 -8 5 -12 10 -9 6 4 8 11 5 16 -9 14 -15 11 -15 -7z"/>
<path d="M14320 18639 c0 -5 5 -7 10 -4 6 3 10 8 10 11 0 2 -4 4 -10 4 -5 0
-10 -5 -10 -11z"/>
<path d="M10222 18619 c2 -7 10 -15 17 -17 8 -3 12 1 9 9 -2 7 -10 15 -17 17
-8 3 -12 -1 -9 -9z"/>
<path d="M9935 18550 c-17 -19 -15 -50 4 -50 5 0 12 -11 15 -24 15 -59 78 -31
70 32 -7 57 -55 80 -89 42z"/>
<path d="M9860 18495 c-7 -8 -10 -22 -6 -30 7 -19 42 -20 53 -1 4 7 15 16 23
19 12 4 11 6 -2 6 -10 1 -18 6 -18 11 0 15 -36 12 -50 -5z"/>
<path d="M10970 18393 c0 -22 2 -25 10 -13 13 20 13 40 0 40 -5 0 -10 -12 -10
-27z"/>
<path d="M10907 18233 c-13 -12 -7 -23 12 -23 10 0 21 7 25 15 5 15 -24 22
-37 8z"/>
<path d="M9674 16635 c-18 -15 -18 -15 5 -13 14 2 26 9 29 16 5 17 -10 15 -34
-3z"/>
<path d="M9535 16601 c-22 -11 -33 -20 -25 -20 21 0 108 23 116 32 15 15 -53
6 -91 -12z"/>
<path d="M7430 16275 c-12 -13 -28 -33 -34 -44 -6 -11 -29 -46 -52 -78 -42
-61 -136 -217 -168 -281 -10 -20 -31 -52 -47 -70 -16 -18 -29 -39 -29 -47 0
-7 -15 -33 -34 -58 -19 -24 -43 -65 -54 -89 -11 -25 -25 -49 -31 -52 -6 -4
-11 -16 -11 -27 0 -26 14 -17 46 29 13 21 38 55 55 77 16 22 34 49 40 60 13
27 74 119 132 201 27 37 53 79 58 92 12 31 59 99 131 188 59 71 71 107 42 118
-21 8 -17 9 -44 -19z"/>
<path d="M6939 15473 c-26 -32 -73 -102 -99 -148 -14 -24 -46 -75 -71 -112
-25 -37 -51 -84 -59 -103 -7 -19 -22 -44 -32 -56 -10 -11 -18 -24 -18 -28 0
-5 -18 -35 -40 -68 -40 -61 -51 -93 -27 -86 18 7 78 101 107 170 8 20 25 47
36 60 12 13 28 34 35 49 19 34 45 78 96 158 24 36 43 73 43 82 0 9 7 23 16 30
16 13 38 59 31 65 -2 2 -10 -4 -18 -13z"/>
<path d="M4964 13005 c-9 -22 1 -29 15 -11 8 10 9 16 1 21 -5 3 -13 -1 -16
-10z"/>
<path d="M4521 12334 c-23 -30 -27 -48 -9 -42 11 4 43 68 34 68 -3 0 -14 -12
-25 -26z"/>
<path d="M4475 12259 c-4 -6 -5 -12 -2 -15 2 -3 7 2 10 11 7 17 1 20 -8 4z"/>
<path d="M4413 12167 c-12 -17 -25 -41 -29 -52 -13 -33 18 -3 44 44 28 49 16
55 -15 8z"/>
<path d="M2881 12064 c0 -11 3 -14 6 -6 3 7 2 16 -1 19 -3 4 -6 -2 -5 -13z"/>
<path d="M4272 11931 c-17 -21 -34 -51 -38 -66 -6 -25 -5 -26 13 -16 19 9 69
108 60 117 -2 2 -18 -13 -35 -35z"/>
<path d="M4192 11793 c-13 -20 -21 -43 -19 -52 2 -10 14 4 30 37 31 59 24 69
-11 15z"/>
<path d="M7830 10394 c-56 -27 -104 -57 -118 -75 -35 -43 -52 -38 -52 16 0 31
-4 45 -13 45 -18 0 -50 -37 -71 -83 -38 -83 -29 -147 20 -147 24 0 114 59 151
100 30 32 102 59 140 53 65 -11 121 77 77 121 -22 22 -27 21 -134 -30z"/>
<path d="M3119 10137 c-9 -12 -19 -42 -23 -66 -4 -24 -16 -55 -26 -69 -24 -29
-25 -61 -5 -88 13 -16 16 -17 25 -4 5 8 10 26 11 40 1 42 7 63 20 70 6 5 10
19 7 33 -3 16 0 28 8 31 14 6 20 76 7 76 -5 0 -15 -11 -24 -23z"/>
<path d="M3026 9852 c-4 -11 -4 -26 0 -35 5 -15 8 -15 21 -2 16 17 14 46 -4
52 -6 2 -14 -5 -17 -15z"/>
<path d="M2600 8960 c0 -13 5 -18 15 -14 8 4 15 12 15 20 0 8 -7 14 -15 14 -8
0 -15 -9 -15 -20z"/>
<path d="M2945 8901 c-3 -5 -1 -12 5 -16 5 -3 10 1 10 9 0 18 -6 21 -15 7z"/>
<path d="M2330 8692 c0 -62 4 -102 10 -102 10 0 6 187 -5 198 -3 3 -5 -40 -5
-96z"/>
<path d="M2330 8439 c0 -5 5 -7 10 -4 6 3 10 8 10 11 0 2 -4 4 -10 4 -5 0 -10
-5 -10 -11z"/>
<path d="M2656 6003 c-11 -11 -6 -23 9 -23 8 0 15 4 15 9 0 13 -16 22 -24 14z"/>
<path d="M2411 4243 c-20 -38 -15 -93 8 -93 12 0 31 48 31 80 0 34 -23 41 -39
13z"/>
<path d="M2227 2673 c-2 -5 -7 -21 -11 -38 -9 -37 -24 -47 -49 -33 -25 13 -32
4 -30 -44 2 -50 6 -54 35 -34 12 9 33 16 45 16 22 0 23 4 23 70 0 66 -3 80
-13 63z"/>
<path d="M17675 8526 c-55 -83 53 -413 258 -791 9 -16 37 -73 63 -125 25 -52
83 -167 129 -255 77 -151 103 -207 238 -515 100 -230 160 -408 188 -560 13
-70 26 -111 38 -124 19 -19 20 -18 31 25 14 51 -2 208 -28 269 -8 19 -25 81
-38 137 -12 56 -34 128 -47 160 -14 32 -52 125 -86 207 -34 81 -73 170 -87
197 -13 27 -33 73 -44 103 -11 29 -78 168 -149 307 -263 520 -388 789 -412
884 -12 50 -25 94 -29 99 -5 4 -16 -4 -25 -18z"/>
<path d="M17227 6412 c-9 -10 -39 -72 -67 -137 -63 -147 -182 -391 -286 -585
-42 -80 -83 -163 -90 -185 -7 -22 -31 -81 -53 -131 -44 -98 -48 -121 -30 -175
25 -73 37 -65 70 46 12 39 25 75 29 80 4 6 35 64 68 130 33 67 87 168 119 226
32 57 87 161 122 229 35 69 76 148 91 175 23 41 29 67 34 150 4 55 12 117 18
138 14 46 0 67 -25 39z"/>
<path d="M17248 5789 c-2 -8 -2 -25 2 -39 6 -22 8 -23 15 -7 4 10 3 28 -2 39
-7 16 -11 18 -15 7z"/>
<path d="M17272 5635 c2 -22 8 -39 13 -37 13 4 9 52 -5 66 -8 8 -10 0 -8 -29z"/>
<path d="M17284 5488 c3 -29 8 -88 12 -132 3 -43 15 -110 26 -150 11 -39 30
-111 43 -161 25 -95 75 -225 123 -322 16 -32 49 -116 72 -188 157 -470 206
-595 309 -792 79 -151 99 -206 142 -388 31 -129 50 -189 111 -335 65 -159 110
-277 123 -324 25 -87 65 -101 65 -23 0 23 -4 56 -10 72 -20 63 -69 193 -100
265 -56 130 -71 172 -101 283 -16 60 -31 112 -34 117 -3 4 -11 41 -19 82 -13
68 -55 164 -153 353 -39 74 -38 72 -82 175 -22 52 -51 129 -65 170 -14 41 -35
102 -46 135 -12 33 -29 89 -40 125 -45 157 -114 332 -169 431 -9 16 -46 109
-75 189 -8 25 -32 110 -51 190 -20 80 -40 159 -45 175 -5 17 -12 47 -15 68 -9
58 -27 45 -21 -15z"/>
<path d="M2070 6251 c0 -6 5 -13 10 -16 6 -3 10 1 10 9 0 9 -4 16 -10 16 -5 0
-10 -4 -10 -9z"/>
<path d="M2002 5565 c0 -16 2 -22 5 -12 2 9 2 23 0 30 -3 6 -5 -1 -5 -18z"/>
<path d="M1920 4770 c0 -5 5 -10 10 -10 6 0 10 5 10 10 0 6 -4 10 -10 10 -5 0
-10 -4 -10 -10z"/>
<path d="M1790 3880 c0 -12 7 -20 18 -20 13 0 14 2 3 9 -7 5 -10 14 -7 20 4 6
2 11 -3 11 -6 0 -11 -9 -11 -20z"/>
<path d="M1721 3524 c0 -11 3 -14 6 -6 3 7 2 16 -1 19 -3 4 -6 -2 -5 -13z"/>
</g>
</svg>
